<?xml version="1.0" encoding="utf-8"?>
<!-- Generator: Adobe Illustrator 23.0.3, SVG Export Plug-In . SVG Version: 6.00 Build 0)  -->
<svg version="1.1" id="Livello_1" xmlns="http://www.w3.org/2000/svg" xmlns:xlink="http://www.w3.org/1999/xlink" x="0px" y="0px"
	 viewBox="0 0 298.9 141.89" style="enable-background:new 0 0 298.9 141.89;" xml:space="preserve">
<style type="text/css">
	.st0{fill:#FFFFFF;}
</style>
<g>
	<path class="st0" d="M160.3,88.5c-0.86,0-1.29-0.43-1.29-1.29v-5.94c-3.01,4.22-7.83,8.09-14.81,8.09
		c-11.71,0-19.8-10.07-19.8-22.38c0-12.31,8.09-22.38,19.8-22.38c6.89,0,11.62,3.61,14.81,8.18v-6.03c0-0.86,0.43-1.29,1.29-1.29
		h7.14c0.86,0,1.29,0.43,1.29,1.29v40.46c0,0.86-0.43,1.29-1.29,1.29H160.3z M146.7,80.07c7.14,0,12.48-5.85,12.48-13.08
		c0-7.23-5.34-13.08-12.48-13.08c-7.23,0-12.57,5.85-12.57,13.08C134.13,74.21,139.47,80.07,146.7,80.07z"/>
	<path class="st0" d="M223.74,86.95c0,13.51-9.64,23.5-23.33,23.5c-7.14,0-13.6-2.93-17.39-6.8c-0.52-0.52-0.52-1.12-0.09-1.72
		l3.79-4.99c0.26-0.34,0.6-0.52,0.86-0.52c0.26,0,0.52,0.17,0.77,0.34c2.84,2.67,6.97,4.39,11.79,4.39c9.12,0,13.86-6.2,13.86-13.34
		v-6.97c-3.01,4.22-7.75,8.09-14.89,8.09c-11.62,0-19.71-9.73-19.71-22.03s8.09-22.29,19.71-22.29c6.89,0,11.71,3.61,14.89,8.18
		v-6.03c0-0.86,0.43-1.29,1.29-1.29h7.14c0.86,0,1.29,0.43,1.29,1.29V86.95z M201.7,79.64c7.23,0,12.57-5.42,12.57-12.74
		c0-7.32-5.34-13-12.57-13c-7.23,0-12.57,5.85-12.57,13C189.13,74.21,194.47,79.64,201.7,79.64z"/>
	<path class="st0" d="M267.64,78.35c0.26-0.17,0.6-0.26,0.86-0.26c0.43,0,0.77,0.26,1.03,0.6l3.18,4.56
		c0.43,0.77,0.34,1.29-0.34,1.72c-4.22,2.67-9.38,4.39-15.92,4.39c-12.22,0-22.04-10.07-22.04-22.38c0-11.71,8.18-22.38,20.92-22.38
		c13.43,0,21.17,11.02,21.17,24.19c0,0.95-0.43,1.55-1.46,1.55h-31.42c1.12,5.85,6.02,10.76,13.08,10.76
		C261.18,81.1,264.28,80.15,267.64,78.35z M267.21,63.2c-1.38-6.54-5.25-10.93-11.88-10.93c-6.2,0-10.5,4.3-11.62,10.93H267.21z"/>
</g>
<g>
	<g>
		<path class="st0" d="M142.92,126.01c-0.12,0-0.18-0.06-0.18-0.16v-7.36c0-0.11,0.06-0.16,0.18-0.16h5.26
			c0.12,0,0.18,0.06,0.18,0.16v0.9c0,0.11-0.06,0.16-0.18,0.16h-4.05v2.18h3.51c0.12,0,0.18,0.05,0.18,0.16v0.87
			c0,0.09-0.05,0.16-0.18,0.16h-3.51v2.92c0,0.11-0.06,0.16-0.18,0.16H142.92z"/>
		<path class="st0" d="M152.11,126.01c-0.12,0-0.18-0.06-0.18-0.16v-7.36c0-0.11,0.06-0.16,0.18-0.16h1.02
			c0.12,0,0.18,0.06,0.18,0.16v7.36c0,0.11-0.06,0.16-0.18,0.16H152.11z"/>
		<path class="st0" d="M157.89,126.01c-0.12,0-0.18-0.06-0.18-0.16v-7.36c0-0.11,0.06-0.16,0.18-0.16h1.02
			c0.12,0,0.18,0.06,0.18,0.16v6.31h3.26c0.12,0,0.18,0.06,0.18,0.16v0.89c0,0.11-0.06,0.16-0.18,0.16H157.89z"/>
		<path class="st0" d="M171.38,118.32c0.13,0,0.18,0.08,0.18,0.16v0.9c0,0.11-0.06,0.16-0.18,0.16h-3.64v2.02h3.21
			c0.12,0,0.18,0.06,0.18,0.16v0.87c0,0.11-0.06,0.16-0.18,0.16h-3.21v2.01h3.65c0.12,0,0.18,0.06,0.18,0.16v0.9
			c0,0.11-0.06,0.16-0.18,0.16h-4.86c-0.12,0-0.18-0.06-0.18-0.16v-7.36c0-0.11,0.06-0.16,0.18-0.16H171.38z"/>
		<path class="st0" d="M187.4,118.32c0.13,0,0.18,0.08,0.18,0.16v0.9c0,0.11-0.06,0.16-0.18,0.16h-3.64v2.02h3.21
			c0.12,0,0.18,0.06,0.18,0.16v0.87c0,0.11-0.06,0.16-0.18,0.16h-3.21v2.01h3.65c0.12,0,0.18,0.06,0.18,0.16v0.9
			c0,0.11-0.06,0.16-0.18,0.16h-4.86c-0.12,0-0.18-0.06-0.18-0.16v-7.36c0-0.11,0.06-0.16,0.18-0.16H187.4z"/>
		<path class="st0" d="M197.47,126.01c-0.16,0-0.22-0.04-0.31-0.16l-4.17-5.33v5.33c0,0.11-0.06,0.16-0.18,0.16h-1.03
			c-0.12,0-0.18-0.06-0.18-0.16v-7.36c0-0.11,0.06-0.16,0.18-0.16h1.04c0.16,0,0.23,0.07,0.32,0.16l4.16,5.33v-5.33
			c0-0.11,0.06-0.16,0.18-0.16h1.04c0.12,0,0.18,0.06,0.18,0.16v7.36c0,0.11-0.06,0.16-0.18,0.16H197.47z"/>
		<path class="st0" d="M208.78,119.78c-0.04,0.05-0.1,0.09-0.18,0.09c-0.04,0-0.07-0.01-0.12-0.03c-0.48-0.26-0.94-0.39-1.56-0.39
			c-1.71,0-2.98,1.22-2.98,2.74c0,1.52,1.27,2.73,2.98,2.73c0.53,0,1.12-0.12,1.6-0.42c0.05-0.03,0.09-0.04,0.12-0.04
			c0.06,0,0.11,0.03,0.16,0.09l0.54,0.75c0.07,0.1,0.05,0.19-0.06,0.25c-0.7,0.39-1.48,0.59-2.36,0.59c-2.53,0-4.37-1.71-4.37-3.95
			c0-2.22,1.84-3.97,4.37-3.97c0.92,0,1.71,0.24,2.33,0.59c0.11,0.06,0.13,0.13,0.07,0.23L208.78,119.78z"/>
		<path class="st0" d="M219.34,125.83c0.09,0.12,0.06,0.18-0.1,0.18h-1.15c-0.13,0-0.24-0.06-0.33-0.16l-1.88-2.47h-1.07v2.47
			c0,0.11-0.06,0.16-0.18,0.16h-1.03c-0.12,0-0.18-0.06-0.18-0.16v-7.36c0-0.11,0.06-0.16,0.18-0.16h2.84c1.67,0,2.8,1.12,2.8,2.53
			c0,1.44-1.22,2.15-1.9,2.33L219.34,125.83z M214.81,119.47v2.75h1.32c1.11,0,1.71-0.61,1.71-1.37c0-0.76-0.6-1.37-1.71-1.37
			H214.81z"/>
		<path class="st0" d="M225.65,121.16l1.92-2.75c0.05-0.07,0.12-0.1,0.21-0.1h1.2c0.1,0,0.12,0.09,0.07,0.16l-2.68,3.78v3.58
			c0,0.11-0.06,0.16-0.18,0.16h-1.04c-0.12,0-0.18-0.06-0.18-0.16v-3.58l-2.7-3.78c-0.05-0.08-0.02-0.16,0.07-0.16h1.21
			c0.1,0,0.17,0.03,0.21,0.1L225.65,121.16z"/>
		<path class="st0" d="M232.88,126.01c-0.12,0-0.18-0.06-0.18-0.16v-7.36c0-0.11,0.06-0.16,0.18-0.16h2.81
			c1.7,0,2.78,1.12,2.78,2.53c0,1.36-1.16,2.56-2.78,2.56h-1.6v2.44c0,0.11-0.06,0.16-0.18,0.16H232.88z M234.09,122.26h1.29
			c1.02,0,1.68-0.55,1.68-1.42c0-0.88-0.66-1.37-1.68-1.37h-1.29V122.26z"/>
		<path class="st0" d="M244.19,126.01c-0.12,0-0.18-0.06-0.18-0.16v-6.3h-2.36c-0.12,0-0.18-0.06-0.18-0.16v-0.9
			c0-0.11,0.06-0.16,0.18-0.16h6.1c0.12,0,0.18,0.06,0.18,0.16v0.9c0,0.11-0.06,0.16-0.18,0.16h-2.36v6.3
			c0,0.11-0.06,0.16-0.18,0.16H244.19z"/>
		<path class="st0" d="M251.84,126.01c-0.12,0-0.18-0.06-0.18-0.16v-7.36c0-0.11,0.06-0.16,0.18-0.16h1.02
			c0.12,0,0.18,0.06,0.18,0.16v7.36c0,0.11-0.06,0.16-0.18,0.16H251.84z"/>
		<path class="st0" d="M265.64,122.17c0,2.2-1.9,3.95-4.38,3.95c-2.48,0-4.37-1.71-4.37-3.95c0-2.22,1.89-3.97,4.37-3.97
			C263.74,118.21,265.64,119.95,265.64,122.17z M264.24,122.17c0-1.52-1.27-2.74-2.98-2.74c-1.71,0-2.98,1.22-2.98,2.74
			c0,1.52,1.27,2.73,2.98,2.73C262.95,124.9,264.24,123.69,264.24,122.17z"/>
		<path class="st0" d="M275.35,126.01c-0.16,0-0.22-0.04-0.31-0.16l-4.17-5.33v5.33c0,0.11-0.06,0.16-0.18,0.16h-1.03
			c-0.12,0-0.18-0.06-0.18-0.16v-7.36c0-0.11,0.06-0.16,0.18-0.16h1.04c0.16,0,0.23,0.07,0.32,0.16l4.16,5.33v-5.33
			c0-0.11,0.06-0.16,0.18-0.16h1.04c0.12,0,0.18,0.06,0.18,0.16v7.36c0,0.11-0.06,0.16-0.18,0.16H275.35z"/>
	</g>
</g>
<g>
	<path class="st0" d="M109.23,72.27c-0.38-0.68-0.75-1.38-1.15-2.06c-0.34-0.57-0.67-1.34-1.04-1.9c-0.45-0.69-0.71-1.22-1.19-1.9
		c-0.52-0.74-0.9-1.28-1.47-1.98c-0.63-0.79-1.47-1.74-2.14-2.5c-0.52-0.59-1.3-1.42-1.83-2.01c-0.16-0.18-2.04-2.14-3.51-3.45
		c-2.03-1.76-4.38-3.5-5.64-4.39c-0.94-0.72-1.83-1.25-2.92-2.02c-0.08-0.04-0.19-0.09-0.21-0.16c-0.08-0.33-0.33-0.33-0.59-0.32
		c-0.63,0.03-1.26,0.07-1.89,0.06c-0.71-0.01-1.42,0.04-2.13,0.08c-0.29,0.01-0.54-0.03-0.74-0.23c-0.13,0.07-0.24,0.18-0.35,0.19
		c-0.52,0.03-1.05,0.03-1.58,0.04c-0.2,0.01-0.35-0.07-0.4-0.25c-0.06-0.18-0.17-0.29-0.34-0.38c1.27-0.08,2.52-0.14,3.77-0.18
		c0.18-0.01,3.41,0.01,3.57-0.2c0.12-0.16,0.07-0.28-0.13-0.36c-0.08-0.03-0.18-0.06-0.23-0.12c-0.14-0.15-0.27-0.12-0.43-0.03
		c-0.14,0.07-0.29,0.14-0.44,0.15c-0.62,0.03-1.24,0.04-1.85,0.06c-0.55,0.02-3.59,0.11-4.58,0.08c-0.01-0.13-0.07-0.27-0.03-0.35
		c0.13-0.22,0.03-0.41-0.03-0.6c-0.1-0.34-0.19-0.68-0.16-1.04c0.02-0.3-0.1-0.45-0.45-0.57c-0.04,0.21-0.05,0.41-0.12,0.61
		c-0.05,0.14-0.02,0.24,0.03,0.37c0.21,0.52,0.4,1.04,0.61,1.63c-0.91,0-1.76,0-2.66,0c0.06-0.71-0.05-1.42,0.01-2.13
		c-0.21-0.32-0.35-0.33-0.6-0.49c0.36-0.21,0.72-0.12,1.09,0.04c0.11-0.24,0.32-0.21,0.52-0.21c0.72-0.01,1.44,0,2.16-0.03
		c0.77-0.03,1.54-0.08,2.32,0.02c0.44,0.06,0.87,0.12,1.28,0.18c0.14,0.79,0.61,1.09,1.09,1.59c0.26,0.27,0.69,0.61,1.05,0.73
		c0.02-0.02,0.03-0.04,0.05-0.07c-0.53-0.72-1.06-1.45-1.59-2.17c0-0.04,0-0.08,0.01-0.12c0.43-0.04,0.4-0.32,0.15-0.83
		c-0.07-0.16-0.1-0.33-0.2-0.43c-0.2-0.21-0.13-2.15-0.14-2.45c0-0.26,0.03-0.53,0.04-0.79c0.02-0.9-0.01-1.8,0.06-2.69
		c0.03-0.36-0.04-0.7-0.06-1.05c0-0.07-0.09-0.16-0.16-0.19c-0.09-0.04-0.21-0.03-0.31-0.03c-0.59,0.03-1.17,0.06-1.76,0.09
		c-0.03,0-0.43,0-0.46,0c-0.56-0.07-0.84-0.08-1.4-0.1c-0.92-0.04-1.51,0.05-2.43,0.04c-0.79,0-1.71-0.01-2.5-0.03
		c-0.45-0.01-1.04-0.03-1.48-0.05c-0.28-0.01-0.6-0.01-0.97-0.03c0.49-0.39,1.06-0.67,1.56-0.6c0.42,0.06,0.82,0.1,1.25,0.04
		c0.99-0.14,1.99-0.15,2.99-0.09c0.83,0.05,1.65,0.15,2.47,0.31c0.36,0.07,1.06,0.07,1.34,0c0-0.03-0.62-0.03-0.88-0.09
		c-0.25-0.05-0.64-0.09-0.89-0.14c-0.25-0.05-0.51-0.08-0.83-0.14c-0.11-0.17,0.29-0.14,0.31-0.14c0.8,0.01,1.43,0.07,2.23,0.1
		c0.85,0.03,1.7,0.07,2.56,0.1c0.22,0.01,0.36-0.11,0.5-0.34c0.03-0.3-0.65-0.21-0.95-0.31c-0.01-0.1-0.03-0.19-0.04-0.29
		c-0.18-0.12-0.35-0.1-0.51-0.08c-0.27,0.04-0.42-0.1-0.57-0.27c-0.16-0.17-0.33-0.34-0.48-0.51c-0.11-0.12-0.24-0.15-0.41-0.07
		c-0.01,0.25-0.01,0.64,0.13,0.94c-0.46-0.01-1.31,0.01-1.54,0.01c-0.76,0.01-1.06-0.01-1.86,0c-0.64,0.06-1.4,0.21-1.86,0.01
		c-0.09-0.17-0.16-0.64-0.32-0.66c-0.33,0.12-0.33,0.12-0.38,0.5C76.47,35.92,76.5,36,76.25,36c-0.24,0.04-0.42,0.03-0.61-0.07
		c0.06-0.21,0.11-0.35,0.13-0.49c0.04-0.21-0.07-0.33-0.28-0.33c-0.21-0.01-0.28,0.14-0.37,0.3c-0.29,0.52-0.43,0.58-1.01,0.44
		c0.01-0.04,0-0.08,0.02-0.11c0.12-0.15,0.13-0.32-0.04-0.41c-0.12-0.06-0.35-0.09-0.44-0.02c-0.21,0.15-0.37,0.38-0.57,0.6
		c-0.23,0-0.5,0-0.78,0c0-0.06-0.01-0.1,0-0.14c0.04-0.14,0.04-0.29-0.11-0.34c-0.15-0.05-0.29-0.01-0.38,0.18
		c-0.09,0.22-0.3,0.33-0.54,0.33c-0.24,0-0.49,0-0.8,0c0.24-0.27,0.43-0.51,0.64-0.74c0.17-0.19,0.18-0.2-0.01-0.45
		c-0.17,0.02-0.33,0.05-0.51,0.08c-0.11,0.65-0.61,0.91-1.13,1.1c-0.36,0.13-0.76,0.17-1.15,0.25c-0.13,0.02-0.23,0.06-0.25,0.2
		c-0.01,0.13,0.06,0.19,0.17,0.22c0.2,0.06,0.28,0.19,0.3,0.41c0.04,0.42,0.49,0.58,0.63,0.94c0.16-0.01,0.15,0.1,0.16,0.21
		c0.03,0.33,0.08,0.65,0.11,0.98c0.06,0.56,0.18,1.13,0.14,1.69c-0.08,1.06-0.01,2.11,0.01,3.16c0,0.26,0.03,0.52,0.04,0.76
		c0.47,0.34,0.73,0.19,0.79-0.5c0-0.01,0-0.03,0-0.04c-0.07-1.09-0.07-2.18-0.21-3.26c-0.12-0.91-0.07-1.84,0.12-2.76
		c0.02-0.09,0.05-0.17,0.07-0.27c0.2-0.01,0.38-0.02,0.61-0.03c0,0.18,0,0.33,0,0.49c-0.01,0.87-0.02,1.74-0.02,2.61
		c0.01,0.94,0.03,1.87,0.05,2.81c0,0.17,0,0.34,0.03,0.51c0.01,0.08,0.07,0.15,0.16,0.32c0.06-0.16,0.1-0.24,0.13-0.33
		c0.09,0.1,0.12,0.17,0.16,0.18c0.12,0.04,0.25,0.1,0.36,0.07c0.06-0.02,0.11-0.19,0.12-0.29c0-0.25-0.01-0.5-0.04-0.75
		c-0.06-0.5-0.16-0.99-0.19-1.49c-0.04-0.93-0.04-1.87-0.05-2.8c0-0.18,0.04-0.36,0.06-0.54c0.05-0.03,0.09-0.06,0.12-0.07
		c0.14-0.02,0.27-0.04,0.27-0.22c0-0.15-0.1-0.18-0.23-0.21c-0.11-0.03-0.2-0.14-0.3-0.21c0.01-0.03,0.02-0.05,0.03-0.08
		c0.29,0,0.59,0,0.9,0c0.04,0.17,0.12,0.36,0.13,0.55c0.06,0.89,0.12,1.79,0.16,2.69c0.05,1.11,0.07,2.21,0.11,3.32
		c0.01,0.23,0.03,0.46,0.05,0.72c-1.57,0-3.1,0-4.62,0c-0.07,0.33-0.04,0.38,0.22,0.52c0.4,0.2,0.46,0.47,0.17,0.82
		c-0.17,0.2-0.34,0.4-0.52,0.59c-0.12,0.13-0.24,0.25-0.37,0.35c-0.2,0.15-0.42,0.27-0.63,0.41c-0.39,0.27-0.79,0.51-1.29,0.55
		c-0.27,0.02-0.54,0.09-0.79,0.14c-0.12,0.37-0.12,0.37,0.09,0.61c-0.09,0.08,9.04-0.12,13.65-0.05c-0.04,0.11,0.02,0.53-0.02,0.67
		c-0.4,0-0.8,0.01-1.19,0c-0.16-0.01-0.32-0.06-0.54-0.11c-0.17,0.22-0.48,0.17-0.79,0.17c-0.46,0.01-0.92,0.04-1.38,0.05
		c-0.14,0-0.28-0.02-0.43-0.04c0-0.11,0-0.2,0-0.29c-0.36-0.13-0.43,0.25-0.59,0.33c-0.33-0.04-7.18,0.04-7.44,0.03
		c-0.34-0.01-0.68-0.06-1.02-0.08c-0.35-0.02-0.69,0.14-1.04-0.04c-0.13-0.07-0.25,0.02-0.34,0.14c-0.08,0.12-0.05,0.23,0.05,0.32
		c0.04,0.04,0.12,0.05,0.23,0.1c-0.41,0.24-0.7,0.4-0.98,0.59c-1.21,0.82-2.53,1.47-3.66,2.4c-0.34,0.28-0.73,0.5-1.07,0.78
		c-0.32,0.27-2.14,1.65-2.7,2.09c-0.6,0.47-5.88,5.57-6.81,6.58c-0.39,0.43-0.75,0.88-1.16,1.28c-0.38,0.37-1.25,1.52-1.37,1.67
		c-0.88,1.06-4.49,5.8-5.9,8.45c-1.36,2.37-3.84,8-4.06,8.63c-0.26,0.76-0.52,1.51-0.67,2.3c-0.1,0.49-0.92,3.62-1.05,4.36
		c-0.12,0.69-0.44,3.2-0.47,3.45c-0.1,0.9-0.19,1.81-0.28,2.75c-0.2,0.03-0.41,0.07-0.63,0.1c-0.16,0.02-0.25,0.12-0.26,0.26
		c-0.01,0.08,0.07,0.18,0.12,0.26c0.04,0.06,0.12,0.1,0.16,0.16c0.16,0.21,0.38,0.26,0.63,0.25c0.78-0.03,1.55-0.09,2.33-0.1
		c0.75-0.01,1.5,0,2.25,0.04c0.71,0.03,11.13,0.14,15.64,0.14c0.72,0,3.91-0.06,4.78-0.06c0.3,0,2.91-0.1,3.91-0.16
		c1-0.06,11.01-0.24,11.59-0.23c0.05,0,4.25,0.13,5.42,0.14c0.21,0,2.03,0.06,2.72,0.02c1.26-0.08,15.17,0.11,16.68,0.09
		c0.63-0.01,6.52-0.07,7.29-0.1c0.55-0.02,1.11-0.02,1.66-0.04c0.09,0,0.19-0.04,0.3-0.07c-0.07-0.25-0.22-0.33-0.41-0.38
		c-0.14-0.04-0.27-0.09-0.41-0.14c-0.15-0.04-0.29-0.11-0.44-0.12c-0.25-0.02-3.64,0.06-4.56,0.11c-0.43,0.02-3.52-0.02-3.93-0.01
		c-0.08,0-0.16-0.01-0.24-0.02c-0.25-0.02-0.49-0.05-0.74-0.07c-0.24-0.02-0.48-0.04-0.71-0.03c-0.83,0.02-5.75,0.01-6.65,0.02
		c-0.63,0.01-5.53-0.01-5.83-0.01c-0.81-0.02-18.52,0.09-19.63,0.08c-0.33,0-4.97,0.16-5.02,0.16c-0.28,0.01-5.25-0.03-5.59-0.03
		c-0.87,0.01-3.11,0-3.36,0.01c-0.51,0.01-2.73,0.01-3.32,0.02c-0.33,0-0.36,0-0.42-0.32c-0.17-0.9-0.18-1.81-0.15-2.72
		c0.03-0.71,0.18-1.42,0.2-2.12c0.03-1.3,0.29-2.56,0.56-3.83c0.02-0.08,0.04-0.22,0-0.25c-0.11-0.08-0.06-0.16-0.04-0.24
		c0.24-0.97,0.49-1.94,0.73-2.92c0.24-0.96,0.46-1.92,0.71-2.88c0.2-0.74,0.41-1.47,0.65-2.2c0.22-0.68,0.44-1.36,0.73-2
		c0.4-0.9,0.87-1.78,1.32-2.66c0.51-1,1.03-1.99,1.53-2.99c0.33-0.66,0.63-1.34,1.07-1.93c0.04-0.05,0.09-0.15,0.07-0.17
		c-0.2-0.18-0.02-0.3,0.06-0.43c0.25-0.4,0.51-0.8,0.77-1.2c0.49-0.75,0.97-1.5,1.47-2.25c0.73-1.08,3.38-4.74,4.06-5.43
		c0.59-0.59,2.32-2.61,2.62-2.92c0.42-0.43,1.09-1.41,0.97-1.48c0.33-0.34,0.62-0.67,0.95-0.98c0.47-0.44,0.96-0.86,1.43-1.29
		c0.27-0.25,1.37-1.21,1.53-1.57c0.01-0.03,0.08-0.05,0.13-0.06c0.35-0.08,0.66-0.23,0.83-0.56c0.17,0.01,0.33,0.01,0.54,0.02
		c-0.08,0.09-0.12,0.14-0.16,0.19c-0.25,0.3-0.51,0.6-0.76,0.9c-0.34,0.42-0.67,0.84-1.01,1.27c-0.43,0.54-0.91,1.04-1.21,1.68
		c-0.19,0.4-0.49,0.75-0.73,1.13c-0.7,1.12-1.41,2.22-2.04,3.39c-0.59,1.1-4.34,7.71-4.36,7.76c-0.18,0.37-0.35,0.74-0.52,1.1
		c-0.13,0.29-0.26,0.58-0.4,0.86c-0.32,0.63-0.66,1.26-0.97,1.9c-0.21,0.44-0.41,0.88-0.58,1.34c-0.43,1.11-0.84,2.22-1.25,3.33
		c-0.27,0.73-0.51,1.47-0.75,2.2c-0.21,0.65-0.42,1.31-0.6,1.96c-0.17,0.63-0.32,1.28-0.47,1.92c-0.02,0.1-0.05,0.21-0.07,0.31
		c-0.02,0.1-0.04,0.2-0.05,0.3c0.02,0,0.03,0.01,0.05,0.01c0.06-0.14,0.13-0.28,0.19-0.42c-0.04,0.35-0.12,0.67-0.21,1
		c-0.05,0.19-0.12,0.37-0.17,0.52c-0.22-0.14-0.42-0.3-0.65-0.41c-0.26-0.13-0.48-0.27-0.61-0.54c-0.05-0.1-0.14-0.19-0.24-0.26
		c-0.15-0.11-0.3-0.19-0.38-0.37c-0.03-0.07-0.18-0.12-0.26-0.11c-0.14,0.02-0.28,0.07-0.39,0.15c-0.53,0.34-1.05,0.7-1.59,1.02
		c-0.19,0.11-0.3,0.24-0.33,0.45c-0.02,0.22,0.15,0.29,0.31,0.34c-0.09,0.22-0.37,0.33-0.26,0.6c0.47,0.02,0.93,0.05,1.21-0.45
		c-0.13-0.01-0.24-0.02-0.35-0.02c0.16-0.67,0.56-1.06,1.23-1.18c0.25,0.18,0.51,0.37,0.8,0.58c-0.06,0.57,0.94,0.86,1.43,0.48
		c0,0.08,0.01,0.14,0,0.21c-0.1,0.52-0.2,1.03-0.29,1.55c-0.15,0.83-0.3,1.66-0.44,2.49c-0.06,0.36-0.1,0.73-0.13,1.1
		c-0.04,0.58-0.03,1.16-0.08,1.73c-0.05,0.56-0.31,4-0.28,4.67c0,0,0.03,0.4,0.03,0.19c0.08-0.17,0.09-0.34,0.14-0.5
		c0.22-0.76,0.31-1.55,0.39-2.33c0.09-0.84,0.19-1.68,0.31-2.51c0.17-1.09,0.37-2.18,0.55-3.27c0.15-0.9,0.3-1.79,0.46-2.69
		c0.15-0.83,0.29-1.66,0.47-2.48c0.12-0.54,0.32-1.06,0.47-1.59c0.16-0.6,0.3-1.2,0.46-1.8c0.24-0.88,0.49-1.75,0.9-2.57
		c0.15-0.3,0.27-0.6,0.4-0.91c0.02-0.06,0.06-0.17,0.04-0.18c-0.29-0.16-0.06-0.37,0-0.5c0.29-0.72,0.62-1.43,0.93-2.14
		c0.06-0.13,0.12-0.26,0.18-0.39c0.06-0.12,1.18-2.1,1.63-3.04c0.57-1.19,1.11-2.39,1.72-3.56c0.36-0.7,0.7-1.42,1.23-2.02
		c0.03-0.04,0.04-0.09,0.06-0.14c0.07-0.17,0.12-0.35,0.21-0.5c0.38-0.68,0.79-1.34,1.17-2.02c0.56-1.02,1.24-1.96,1.92-2.9
		c0.36-0.5,0.7-1.02,1.04-1.54c0.25-0.38,0.46-0.8,0.76-1.15c0.5-0.6,1.05-1.17,1.59-1.76c-0.09-0.22-0.09-0.24,0.11-0.43
		c0.4-0.38,1.05-1.28,0.96-1.32c0.23-0.21,0.42-0.31,0.61-0.42c0.38-0.21,0.38-0.21,0.62-0.15c-0.12,0.14-0.23,0.27-0.34,0.39
		c-0.44,0.51-0.88,1.01-1.3,1.54c-0.28,0.35-0.48,0.76-0.76,1.11c-0.8,1.03-1.48,2.14-2.16,3.25c-0.37,0.59-0.78,1.16-1.12,1.77
		c-0.53,0.95-1.05,1.92-1.53,2.9c-0.32,0.66-0.63,1.33-0.84,2.03c-0.19,0.63-0.39,1.26-0.66,1.86c-0.2,0.44-0.42,0.88-0.59,1.33
		c-0.32,0.82-0.6,1.66-0.93,2.48c-0.44,1.09-1.87,5.3-2.1,6.34c-0.19,0.86-0.35,1.73-0.58,2.58c-0.25,0.94-0.55,1.87-0.74,2.83
		c-0.09,0.45-0.26,0.89-0.32,1.34c-0.13,0.99-0.17,2-0.33,2.98c-0.18,1.09-0.14,2.18-0.21,3.27c-0.06,0.83,0.03,2.61,0.06,2.74
		c0.3-1.16,0.13-2.28,0.36-3.36c0.02,0.14,0.05,0.28,0.07,0.42c0.11-0.3,0.15-0.59,0.18-0.88c0.21-2.3,0.63-4.57,1.12-6.82
		c0.34-1.56,0.71-3.11,1.09-4.66c0.34-1.39,0.69-2.78,1.25-4.1c0.02-0.06,0.01-0.13,0.02-0.19c0.01-0.12,0.01-0.24,0.04-0.35
		c0.31-1.2,0.77-2.35,1.24-3.5c0.45-1.08,0.93-2.15,1.41-3.23c0.48-1.07,0.97-2.14,1.46-3.2c0.28-0.6,0.57-1.19,0.86-1.78
		c0.24-0.48,0.47-0.98,0.73-1.44c0.35-0.61,0.75-1.2,1.08-1.81c0.55-1.01,1.23-1.93,1.91-2.86c0.11-0.15,1.38-1.64,2-2.29
		c0.22-0.23,0.48-0.42,0.54-0.79c0.09,0.01,0.19,0.02,0.3,0.03c-0.08,0.14-0.16,0.25-0.21,0.36c-0.37,0.82-0.73,1.64-1.09,2.45
		c-0.34,0.76-0.56,1.56-0.84,2.34c-0.27,0.79-0.45,1.59-0.68,2.39c-0.13,0.48-0.27,0.96-0.41,1.44c-0.3,1.05-0.61,2.1-0.91,3.15
		c-0.19,0.68-0.36,1.37-0.56,2.06c-0.19,0.67-0.4,1.33-0.61,2c-0.15,0.48-0.32,0.96-0.47,1.4c-0.35-0.21-0.71-0.38-1.03-0.6
		c-0.46-0.32-0.97-0.32-1.48-0.26c-0.28,0.03-0.57,0.13-0.72,0.42c-0.27,0.51-0.53,1.03-0.78,1.55c-0.13,0.27-0.07,0.41,0.21,0.63
		c0.34-0.19,0.65-0.39,0.69-0.84c0.01-0.11,0.12-0.24,0.21-0.32c0.2-0.17,0.42-0.32,0.63-0.48c0.41-0.31,0.71-0.25,0.96,0.2
		c0.09,0.16,0.18,0.32,0.42,0.32c0-0.19,0-0.37,0-0.57c0.27,0.11,0.48,0.36,0.8,0.19c-0.12,0.43-0.22,0.8-0.32,1.18
		c-0.15,0.58-1.63,9.63-1.69,10.38c-0.05,0.6-0.12,1.21-0.2,1.81c-0.07,0.57-0.12,1.15-0.23,1.72c-0.15,0.76-0.16,1.52-0.16,2.28
		c0,0.34,0.12,0.69,0.07,1.01c-0.1,0.57-0.09,1.14-0.07,1.72c0.01,0.25,0.01,0.5-0.02,0.75c-0.04,0.31-0.11,0.62-0.16,0.93
		c-0.01,0.06,0.03,0.13,0.05,0.25c0.08-0.52,0.17-0.97,0.23-1.43c0.08-0.6,0.14-1.21,0.21-1.81c0.08-0.63,0.17-1.25,0.24-1.88
		c0.07-0.72,0.12-1.44,0.18-2.17c0.01-0.09,0.05-0.17,0.07-0.26c0.02,0.01,0.04,0.69,0.03,1.02c0.07-0.12,0.12-0.24,0.13-0.37
		c0.08-0.77,0.15-1.55,0.21-2.33c0.11-1.31,0.27-2.62,0.5-3.91c0-0.03,0.01-0.05,0.01-0.08c0.27-1.02,0.55-2.03,0.82-3.05
		c0.06-0.22,0.14-0.45,0.1-0.76c-0.19,0.3-0.17,0.64-0.42,0.83c0.09-0.41,0.27-0.8,0.3-1.21c0.06-0.71,0.47-1.33,0.41-2.06
		c0-0.01,0.01-0.03,0.01-0.04c0.08-0.26,0.09-0.52,0.13-0.78c0.1-0.6,0.24-1.19,0.39-1.78c0.42-1.63,0.84-3.26,1.27-4.89
		c0.21-0.8,0.36-1.62,0.77-2.36c0.03-0.05,0.04-0.14,0.01-0.17c-0.12-0.11-0.06-0.21-0.03-0.32c0.06-0.23,0.1-0.46,0.17-0.69
		c0.26-0.83,0.52-1.66,0.79-2.48c0.06-0.19,0.17-0.35,0.24-0.54c0.1-0.27,0.16-0.55,0.27-0.82c0.3-0.73,0.58-1.47,0.92-2.19
		c0.32-0.68,0.47-1.43,0.97-2.02c0.02-0.03,0.02-0.08,0.04-0.11c0.19-0.31,0.37-0.63,0.57-0.94c0.04-0.06,0.12-0.11,0.19-0.12
		c0.21-0.01,0.43-0.01,0.66-0.01c-0.09,0.3-0.17,0.57-0.25,0.83c-0.15,0.49-0.31,0.97-0.44,1.47c-0.25,0.94-0.46,1.89-0.71,2.83
		c-0.23,0.84-1.89,7.97-1.98,8.69c-0.07,0.56-1.18,5.38-1.35,9.4c-0.03,0.97-0.13,1.94-0.21,2.92c-0.02,0.3-0.04,0.6-0.07,0.9
		c-0.05,0.48-0.14,0.96-0.16,1.45c-0.04,0.99-0.05,1.98-0.08,2.97c-0.02,0.79-0.06,1.58-0.08,2.37c-0.01,0.49,0,0.97,0,1.46
		c0.1,0.07,0.22-0.88,0.29-1.4c0.01-0.08,0.02-0.17,0.06-0.22c0.11-0.12,0.08-0.22,0.06-0.36c-0.05-0.31-0.02-0.62,0.28-0.82
		c-0.16-0.33-0.11-0.65-0.06-0.98c0.06-0.46,0.11-0.91,0.14-1.37c0.06-0.98,0.1-1.97,0.16-2.95c0.01-0.23,0.04-0.47,0.19-0.77
		c0,0.72,0,1.35,0,1.98c0.05-0.17,0.04-0.33,0.05-0.5c0.03-0.46,0.06-0.92,0.09-1.38c0.07-1.13,0.12-2.26,0.23-3.39
		c0.09-0.9,0.24-1.8,0.38-2.7c0.03-0.2,1.07-5.9,1.25-6.86c0.2-1.04,0.35-2.1,0.56-3.14c0.3-1.46,0.63-2.91,0.95-4.36
		c0.23-1.06,0.49-2.1,0.94-3.09c0.05-0.1,0.03-0.23,0.05-0.35c-0.02,0-0.05-0.01-0.07-0.01c-0.09,0.16-0.18,0.32-0.26,0.48
		c0.1-0.85,0.67-2.45,1.06-3.12c0.2,0.01,0.41,0.02,0.6,0.03c0.06,0.21,0.11,0.37,0.16,0.53c0.27,0.81,0.55,1.62,0.82,2.43
		c0.33,0.97,0.66,1.94,0.92,2.93c0.14,0.56,0.28,1.12,0.4,1.69c0.11,0.53,0.18,1.06,0.27,1.59c0.07,0.4,0.16,0.79,0.23,1.19
		c0.12,0.65,0.25,1.29,0.33,1.94c0.03,0.27,0.18,0.5,0.21,0.76c0.08,0.61,0.19,1.22,0.24,1.84c0.09,1.07,0.14,2.15,0.23,3.22
		c0.06,0.76,0.14,1.52,0.23,2.28c0.09,0.76,0.27,1.49,0.45,2.23c0.17,0.69,0.34,1.39,0.28,2.1c-0.08,0.87,0.01,2.53,0.11,3.48
		c0.06-0.3,0.11-1.32,0.16-1.53c0.09-0.03-0.05-2.85-0.11-4.23c0.03,0,0.05-0.01,0.08-0.01c0.04,0.23,0.08,0.46,0.12,0.69
		c0.01-0.42,0.01-0.84-0.04-1.25c-0.1-0.88-0.23-1.75-0.35-2.62c-0.01-0.09-0.04-0.18-0.06-0.27c-0.05-0.19-0.11-0.38-0.15-0.57
		c-0.16-0.92-0.3-1.85-0.45-2.77c-0.08-0.48-0.17-0.96-0.24-1.44c-0.11-0.72-0.2-1.43-0.3-2.15c-0.07-0.51-0.15-1.01-0.24-1.52
		c-0.09-0.51-0.05-1.02-0.12-1.53c-0.07-0.48-0.11-0.96-0.23-1.43c-0.25-1-0.54-1.99-0.76-2.99c-0.28-1.25-0.52-2.5-0.93-3.72
		c-0.09-0.26-0.09-0.56-0.13-0.84c0.2-0.03,0.34-0.04,0.48-0.08c0.22-0.06,0.35,0,0.44,0.21c0.11,0.26,0.26,0.51,0.39,0.76
		c0.08,0.15,0.2,0.28,0.26,0.43c0.14,0.38,0.43,0.7,0.44,1.13c0,0.05,0.04,0.1,0.07,0.14c0.41,0.65,1.79,3.87,1.82,3.96
		c0.36,0.85,0.54,1.76,0.8,2.64c0.04,0.13,0.06,0.25,0.09,0.38c0.05,0.21,0.08,0.42,0.15,0.61c0.27,0.78,0.54,1.57,0.55,2.41
		c0,0.07,0.01,0.13,0.03,0.2c0.29,1.12,0.65,2.22,0.8,3.38c0.07,0.52,0.19,1.03,0.27,1.55c0.14,0.86,0.26,1.72,0.39,2.58
		c0.02,0.13,0.1,1.12,0.23,1.1c0.06-0.49-0.21-1.9-0.11-2.39c0.25,0.93,0.25,1.91,0.53,2.83c-0.04-0.69-0.1-1.37-0.2-2.05
		c-0.26-1.71-0.53-3.41-0.81-5.11c-0.16-0.96-0.34-1.92-0.51-2.88c-0.08-0.42-1.13-4.27-1.44-5.08c-0.45-1.17-0.88-2.35-1.35-3.51
		c-0.3-0.74-0.68-1.46-1-2.19c-0.15-0.35-0.39-0.69-0.38-1.12c0.23-0.05,0.42-0.06,0.59,0.12c0.37,0.39,2.71,3.45,3.14,3.98
		c0.81,1,1.58,2.04,2.14,3.21c0.29,0.61,0.64,1.18,0.93,1.79c0.38,0.77,0.75,1.54,1.09,2.33c0.52,1.18,1.01,2.37,1.52,3.56
		c0.2,0.46,0.39,0.92,0.59,1.38c0.07,0.15,0.12,0.31,0.19,0.46c0.12,0.28,0.11,0.62,0.4,0.82c0.02-0.04,0.04-0.09,0.03-0.13
		c-0.28-0.71-0.55-1.42-0.84-2.12c-0.49-1.22-0.99-2.43-1.49-3.65c-0.28-0.68-0.59-1.35-0.88-2.03c-0.28-0.66-0.53-1.33-0.82-1.99
		c-0.16-0.36-0.37-0.7-0.55-1.04c-0.12-0.23-0.25-0.47-0.37-0.7c0.02-0.01,0.04-0.03,0.07-0.04c0.13,0.19,0.27,0.37,0.39,0.57
		c0.2,0.31,0.39,0.62,0.58,0.92c0,0-1.16-2.2-1.76-3.17c-0.43-0.69-0.93-1.35-1.4-2.01c-0.39-0.55-0.78-1.1-1.18-1.64
		c-0.13-0.18-0.28-0.34-0.46-0.55c0.23,0,0.41-0.01,0.59,0c0.18,0.01,0.31,0.12,0.3,0.3c-0.01,0.21,0.1,0.31,0.24,0.41
		c0.12,0.09,0.22,0.19,0.32,0.29c0.39,0.39,0.76,0.81,1.16,1.19c0.64,0.61,1.23,1.26,1.75,1.98c0.36,0.5,0.72,1.01,1.08,1.51
		c0.11,0.16,0.28,0.32,0.31,0.5c0.05,0.34,0.27,0.54,0.45,0.79c0.31,0.43,0.64,0.84,0.93,1.28c0.36,0.54,0.72,1.1,1.05,1.66
		c0.35,0.62,0.69,1.24,0.99,1.89c0.3,0.64,0.55,1.31,0.84,1.96c0.08,0.18,0.18,0.34,0.27,0.51c0.03-0.01-0.09-0.36-0.13-0.52
		c-0.04-0.16-0.86-2.36-0.97-2.59c-0.41-0.84-0.8-1.69-1.22-2.52c-0.33-0.66-0.69-1.31-1.03-1.96c-0.03-0.06-0.09-0.11-0.09-0.17
		c-0.02-0.38-0.29-0.62-0.5-0.89c-0.42-0.55-0.85-1.1-1.29-1.65c-0.29-0.36-0.58-0.71-0.88-1.07c-0.26-0.31-0.51-0.63-0.76-0.95
		c-0.01-0.01,0.51,0.26,0.72,0.44c0.68,0.59,1.38,1.17,2.02,1.81c0.47,0.46,0.9,0.96,1.28,1.49c0.31,0.43,0.68,0.79,1.1,1.12
		c-0.47-0.81-1.12-1.5-1.64-2.28c0.39,0.29,0.77,0.59,1.1,0.94c0.62,0.66,1.21,1.34,1.81,2.03c0.43,0.5,1.99,2.35,2.1,2.43
		c0.05-0.33-0.2-0.42-0.31-0.58c-0.39-0.55-0.79-1.09-1.2-1.62c-0.43-0.56-0.85-1.13-1.34-1.63c-1.2-1.21-2.43-2.38-3.65-3.56
		c-0.39-0.38-0.77-0.76-1.16-1.13c-0.34-0.32-0.73-0.61-1.03-0.96c-0.26-0.31-0.57-0.48-0.94-0.59c-0.06-0.02-0.1-0.09-0.21-0.19
		c0.44-0.04,0.8-0.07,1.16-0.11c-0.13,0.24-0.11,0.24-0.08,0.48c0.03,0.25,0.21,0.27,0.38,0.33c0.05,0.02,0.1,0.05,0.14,0.08
		c0.53,0.36,1.06,0.72,1.59,1.1c0.75,0.53,1.37,1.2,2,1.87c0.39,0.42,0.77,0.86,1.15,1.29c0.01,0.01,0.04,0.01,0.06,0.02
		c0.01-0.04,0.02-0.07,0.04-0.18c0.35,0.31,0.67,0.6,0.99,0.88c-0.45-0.63-1.01-1.16-1.45-1.8c0.3,0.19,3.84,3.56,4.54,3.85
		c-0.92-1.18-1.9-2.25-2.95-3.25c0.44,0.24,0.81,0.58,1.17,0.91c0.38,0.35,0.75,0.71,1.11,1.07c0.34,0.35,1.06,0.96,1.38,1.33
		c-0.06-0.11-0.43-0.55-0.5-0.67c0.05-0.02,0.09-0.04,0.11-0.06c0.03-0.02,0.04-0.06,0.07-0.09c-0.03-0.05-2.63-2.88-4.14-4
		c-0.69-0.51-1.37-1.03-2.06-1.54c-0.54-0.4-1.09-0.78-1.64-1.17c-0.16-0.12-0.31-0.25-0.47-0.38c0.03-0.05,0.05-0.14,0.09-0.14
		c0.1-0.01,0.22-0.02,0.31,0.02c0.22,0.11,0.43,0.25,0.63,0.38c0.66,0.41,1.31,0.83,1.96,1.25c0.58,0.37,1.16,0.73,1.73,1.1
		c0.12,0.07,0.21,0.18,0.32,0.26c-0.02,0.02-0.03,0.04-0.05,0.06c-0.35-0.19-0.71-0.37-1.06-0.57c-0.32-0.18-0.62-0.39-0.93-0.57
		c-0.09-0.05-0.19-0.08-0.29-0.12c0.11,0.11,0.21,0.23,0.33,0.32c0.57,0.44,1.16,0.87,1.74,1.3c0.15,0.11,0.48,0.29,0.5,0.27
		c-0.32-0.26-0.64-0.53-0.96-0.79c0.1-0.03,0.15-0.01,0.21,0.03c0.93,0.56,1.81,1.19,2.66,1.87c0.07,0.06,0.15,0.11,0.22,0.16
		c-0.12-0.16-0.07-0.43-0.19-0.59c1.18,0.92,5.41,4.74,5.46,4.77c0.53,0.58,1.5,1.54,1.6,1.65c0.09,0.1,1.46,1.8,2,2.45
		c0.81,0.98,1.59,1.99,2.36,3c0.34,0.45,0.63,0.94,0.94,1.41c0.1,0.15,0.19,0.38,0.33,0.42c0.24,0.08,0.32,0.26,0.43,0.42
		c0.29,0.44,0.57,0.88,0.84,1.33c0.67,1.13,1.34,2.26,2.01,3.38c0.03,0.06,0.1,0.09,0.15,0.13c-0.01-0.06-0.02-0.12-0.04-0.17
		C109.64,73,109.43,72.64,109.23,72.27z M79.01,37.91c1.07,0.05,2.8-0.03,4.27,0.05c-0.04,0.44-0.08,0.85-0.11,1.26
		c-0.01,0.13-0.03,0.26-0.02,0.39c0.07,1.09,0.14,2.18,0.21,3.27c0.01,0.24,0.01,0.47,0.01,0.71c0.01,0.16,0.01,0.3,0.14,0.44
		c0.06,0.06,0.05,0.21,0.04,0.32c-0.01,0.27-0.1,0.54,0.05,0.81c-0.09-0.07-0.19-0.15-0.28-0.22c-0.54,0.17-3.35,0.29-4.2,0.21
		c0.02-0.57-0.11-4.24-0.12-5.2c0-0.51,0.02-1.03,0.01-1.54C79.01,38.24,78.97,38.14,79.01,37.91z M78.3,37.95
		c0.2,0.39,0.08,0.75,0.08,1.1c0,0.32,0,0.63,0,0.95c0,0.67-0.01,1.34,0.01,2.01c0.02,0.67,0.06,1.34,0.12,2.01
		c0.03,0.39,0.13,0.77,0.19,1.16c-0.33,0-0.68,0-1.06,0c-0.04-0.47-0.05-0.92-0.11-1.37c-0.14-1.05-0.07-2.1-0.13-3.15
		c-0.02-0.29-0.05-0.58-0.05-0.87c0-0.43,0.01-0.86,0.04-1.3c0.01-0.19-0.01-0.36-0.2-0.53C77.59,37.95,77.95,37.95,78.3,37.95z
		 M72.16,37.32c-0.41-0.06-2.45-0.08-2.8,0.03c-0.29-0.21-0.23-0.4-0.27-0.58c0.5-0.13,2.1-0.05,2.17-0.12
		c0.29,0.03,0.74,0.01,1.01,0.05c0.08,0.01,0.38,0.11,0.39,0.15C72.67,37.01,72.26,37.34,72.16,37.32z M75.34,37.93
		c0.35,0,0.83,0.04,1.2,0.04c0,0.29,0.11,0.59-0.08,0.87c-0.04,0.05-0.04,0.16-0.01,0.22c0.21,0.39,0.12,0.83,0.16,1.24
		c0.06,0.65,0.16,1.29,0.16,1.95c0.01,0.96,0.1,1.93,0.1,2.96c-0.32,0-0.91-0.05-1.25-0.05c-0.14-0.86-0.18-1.42-0.22-2.32
		c-0.04-0.91,0-1.93-0.05-2.84C75.31,39.4,75.25,38.54,75.34,37.93z M73.38,37.88c0.42,0,0.8,0,1.23,0c0,0.24,0,0.46,0,0.68
		c0.01,0.33,0.03,0.65,0.03,0.98c0,0.66,0.04,1.32-0.01,1.97c-0.05,0.66-0.01,1.31,0.08,1.96c0.06,0.4,0.11,0.81,0.19,1.21
		c0.03,0.13,0.12,0.25,0.19,0.38c-0.23,0.13-0.9,0.14-1.72,0.04c0.06-0.14,0.16-0.28,0.17-0.43c0.02-0.16-0.06-0.34-0.06-0.51
		c-0.02-0.64-0.03-1.29-0.04-1.93c-0.01-0.34-0.01-0.68-0.01-1.02c0.01-0.75,0.02-1.5,0.03-2.25c0-0.21,0.03-0.41-0.07-0.62
		C73.33,38.23,73.38,38.06,73.38,37.88z M76.21,48.65c-0.8,0.02-1.59,0.03-2.39,0.02c-0.52-0.01-3.97-0.05-5.17-0.06
		c-0.51,0-1.01-0.06-1.61-0.1c0.56-0.39,1.09-0.67,1.49-1.07c0.39-0.4,0.73-0.89,0.91-1.49c0.41-0.06,0.84-0.17,1.31-0.08
		c-0.11,0.45-0.24,0.82-0.68,0.99c-0.15,0.06-0.3,0.21-0.36,0.35c-0.12,0.31-0.38,0.46-0.61,0.66c-0.1,0.09-0.19,0.2-0.29,0.31
		c0.17,0.13,0.28,0.08,0.4,0c0.73-0.51,1.34-1.13,1.79-1.9c0.13-0.22,0.28-0.33,0.52-0.34c0.27-0.02,0.54-0.06,0.82-0.1
		c-0.13,0.68-0.45,1.24-0.93,1.71c-0.14,0.14-0.19,0.23-0.06,0.4c0.44-0.1,0.73-0.39,0.98-0.72c0.1-0.14,0.24-0.25,0.32-0.4
		c0.06-0.1,0.12-0.24,0.1-0.35c-0.04-0.27-0.06-0.27,0.1-0.58c0.53,0,1.05,0.01,1.58,0c0.57-0.01,1.13-0.04,1.7-0.05
		c0.08,0,0.17,0.03,0.25,0.05c-0.06,0.13-0.11,0.25-0.04,0.41c0.18,0.43,0.13,0.88,0.12,1.33c-0.01,0.25-0.04,0.5,0.15,0.71
		c0.03,0.04,0.02,0.13,0.03,0.22C76.49,48.6,76.35,48.65,76.21,48.65z M37.01,93.47c-0.14,0.67-0.15,1.36-0.2,2.04
		c0,0.04-0.01,0.08-0.02,0.12c-0.67,0-1.32,0-2,0c0-0.19-0.02-0.4,0-0.62c0.13-1.15,0.23-2.31,0.4-3.46
		c0.12-0.79,0.32-1.57,0.49-2.36c0.04-0.18,0.06-0.36,0.1-0.54c0.19-0.87,0.35-1.76,0.6-2.62c0.25-0.88,0.59-1.75,0.89-2.62
		c0.18-0.53,0.35-1.07,0.56-1.59c0.32-0.78,0.68-1.54,1.03-2.3c0.28-0.61,0.57-1.21,0.88-1.81c0.22-0.43,1.18-2.44,1.29-2.65
		c1.48-2.85,4.81-7.4,5.22-7.84c1.2-1.86,4.38-4.84,4.8-5.28c0.2-0.21,4.78-4.13,5.35-4.66c0.66-0.6,1.33-1.2,2.06-1.72
		c0.58-0.41,1.11-0.89,1.67-1.33c0.29-0.23,0.59-0.44,0.89-0.65c0.09-0.06,0.2-0.08,0.31-0.11c0.01,0.03,0.03,0.05,0.04,0.08
		c-0.26,0.21-0.53,0.42-0.79,0.64c-1.14,0.93-2.32,1.83-3.41,2.82c-0.8,0.73-1.63,1.41-2.41,2.15c-0.58,0.54-1.89,1.93-2,2.06
		c-0.94,1.06-3.29,3.75-3.51,4.05c-0.37,0.51-0.77,1.01-1.17,1.49c-0.28,0.34-1.16,1.44-1.31,1.67c-0.43,0.65-0.85,1.3-1.28,1.94
		c-0.5,0.74-1.46,2.37-1.48,2.41c-0.17,0.31-0.33,0.62-0.5,0.93c-0.36,0.66-0.73,1.31-1.07,1.97c-0.26,0.5-0.51,1.01-0.76,1.52
		c-0.31,0.62-0.64,1.23-0.93,1.86c-0.23,0.5-0.41,1.02-0.62,1.53c-0.14,0.34-0.29,0.67-0.43,1.01c-0.04,0.08-0.08,0.16-0.11,0.25
		c-0.39,1.16-1.25,3.96-1.31,4.2c-0.07,0.29-0.14,0.58-0.21,0.87c-0.03,0.13-0.54,2.56-0.59,2.94
		C37.36,90.77,37.07,93.17,37.01,93.47z M42.41,92.75c-0.16,0.61-0.25,2.7-0.25,3.16c-1.44-0.09-3-0.26-4.39-0.34
		c-0.12-0.88,0.21-4.01,0.27-4.43c0.09-0.58,0.39-2.07,0.52-2.65c0.17-0.76,0.51-2.2,1-4.26c0.69-2.61,3.05-7.51,3.45-8.34
		c0.26-0.54,0.57-1.06,0.86-1.59c0.06-0.12,0.11-0.24,0.18-0.35c0.12-0.2,0.25-0.39,0.38-0.59c0.14-0.21,0.3-0.4,0.42-0.62
		c0.47-0.9,1-1.76,1.57-2.59c0.44-0.64,0.81-1.32,1.22-1.98c0.1-0.17,0.23-0.32,0.35-0.48c0.31-0.4,0.62-0.81,0.95-1.2
		c0.35-0.41,0.7-0.82,1.07-1.22c0.42-0.46,0.88-0.87,1.25-1.36c0.27-0.35,0.53-0.71,0.84-1.03c0.57-0.59,1.11-1.19,1.72-1.73
		c0.35-0.31,0.63-0.69,0.99-0.99c0.31-0.26,0.58-0.57,0.88-0.84c0.44-0.4,0.88-0.79,1.33-1.18c0.67-0.59,1.34-1.19,2.01-1.78
		c0.23-0.2,0.46-0.4,0.68-0.6c0.42-0.38,0.85-0.74,1.37-0.98c0.13-0.06,0.22-0.18,0.34-0.26c0.59-0.4,1.18-0.79,1.77-1.19
		c0.23-0.15,0.47-0.29,0.67-0.47c0.1-0.09,0.12-0.26,0.2-0.44c0.54-0.23,1.01-0.73,1.77-0.9c-0.32,0.29-0.56,0.54-0.82,0.75
		c-0.72,0.59-1.41,1.23-2.09,1.87c-0.55,0.53-1.13,1.02-1.67,1.57c-0.72,0.73-1.41,1.5-2.11,2.24c-0.5,0.54-1.02,1.06-1.52,1.6
		c-0.35,0.38-0.68,0.77-1.01,1.16c-0.76,0.89-1.53,1.78-2.27,2.69c-0.5,0.61-0.95,1.26-1.42,1.89c-0.17,0.23-0.37,0.44-0.54,0.67
		c-0.23,0.3-0.44,0.61-0.67,0.92c-0.22,0.3-0.45,0.58-0.65,0.88c-0.36,0.58-0.71,1.17-1.05,1.76c-0.14,0.24-0.27,0.48-0.39,0.73
		c-0.19,0.38-0.38,0.77-0.57,1.15c-0.12,0.23-0.24,0.46-0.37,0.69c-0.3,0.57-0.61,1.13-0.92,1.7c-0.13,0.23-0.28,0.45-0.38,0.69
		c-0.23,0.51-0.45,1.04-0.67,1.55c-0.16,0.37-0.35,0.74-0.49,1.12c-0.16,0.44-0.28,0.91-0.44,1.35c-0.19,0.53-0.42,1.04-0.63,1.57
		c-0.06,0.15-0.29,0.31-0.02,0.48c0.01,0.01-0.02,0.1-0.04,0.15c-0.33,0.95-0.66,1.89-0.98,2.84c-0.29,0.86-0.46,1.75-0.62,2.65
		c-0.1,0.58-0.3,1.15-0.47,1.71c-0.12,0.42-0.49,3.92-0.5,3.98C42.5,92.18,42.48,92.48,42.41,92.75z M48.47,83.35
		c-0.06-0.23-0.06-0.22,0.18-0.66C48.59,82.89,48.54,83.1,48.47,83.35z M51.59,73.28c-0.11,0.21-0.21,0.43-0.32,0.64
		c-0.1,0.2-0.21,0.39-0.32,0.59c0.13-0.67,0.5-1.23,0.81-1.89C51.77,72.94,51.77,72.93,51.59,73.28z M61.6,57.9
		c0.27-0.46,0.64-0.83,1.03-1.19C62.45,57.24,61.99,57.54,61.6,57.9z M66.67,52.56c-0.94,1.06-2.04,1.95-3.1,2.88
		c-0.81,0.71-1.55,1.47-2.2,2.31c-0.36,0.47-0.68,0.97-1.02,1.45c-0.15,0.2-0.33,0.37-0.49,0.57c-0.05,0.06-0.08,0.15-0.11,0.23
		c0.05,0.01,0.09,0.01,0.17,0.02c-0.03,0.07-0.04,0.13-0.08,0.17c-0.61,0.68-1.04,1.48-1.55,2.23c-0.46,0.67-0.97,1.31-1.44,1.96
		c-0.13,0.18-0.25,0.37-0.36,0.57c-0.26,0.49-0.57,0.94-0.93,1.37c-0.29,0.35-0.53,0.75-0.79,1.13c-0.54,0.79-1.11,1.56-1.62,2.38
		c-0.77,1.24-1.55,2.48-2.11,3.84c-0.17,0.41-0.33,0.8-0.37,1.24c-0.04,0.52-0.39,0.92-0.55,1.39c-0.23,0.66-0.47,1.31-0.7,1.96
		c-0.08,0.24-0.17,0.47-0.24,0.71c-0.33,1.15-0.71,2.29-0.98,3.46c-0.24,1.02-0.4,2.07-0.56,3.11c-0.14,0.91-0.22,1.83-0.38,2.74
		c-0.1,0.62-0.43,2.58-0.44,2.67c-0.03,0.46-0.2,2.1-0.22,2.47c-0.03,0.54-0.06,1.08-0.08,1.61c-0.01,0.27,0,0.55,0,0.83
		c-0.41,0.14-2.74,0.19-3.81,0.08c0-0.25,0.01-0.49,0-0.74c-0.02-0.65,0.1-1.28,0.21-1.91c0.08-0.48,0.03-0.98,0.1-1.46
		c0.09-0.62,0.23-1.24,0.34-1.86c0.09-0.52,0.16-1.04,0.26-1.56c0.06-0.34,0.16-0.66,0.24-1c0.11-0.5,0.21-1,0.31-1.51
		c0.08-0.39,0.17-0.77,0.24-1.16c0.09-0.46,0.16-0.93,0.25-1.39c0.01-0.06,0.03-0.13,0.05-0.19c0.16-0.43,0.31-0.86,0.47-1.29
		c0.14-0.38,0.27-0.77,0.41-1.15c0.3-0.8,0.58-1.61,0.9-2.4c0.13-0.34,0.33-0.65,0.52-1.04c-0.11,0.05-0.17,0.08-0.29,0.14
		c0.05-0.14,0.06-0.25,0.11-0.34c0.43-0.89,0.86-1.78,1.31-2.66c0.21-0.41,0.46-0.8,0.67-1.2c0.24-0.45,0.45-0.92,0.71-1.36
		c0.67-1.13,1.33-2.27,2.05-3.37c0.63-0.96,1.34-1.86,2.03-2.78c0.67-0.89,1.34-1.79,2.05-2.65c0.88-1.07,1.79-2.11,2.69-3.16
		c0.2-0.23,0.44-0.41,0.66-0.62c0.05-0.04,0.13-0.08,0.14-0.13c0.08-0.41,0.44-0.57,0.69-0.83c0.47-0.48,0.97-0.93,1.41-1.43
		c0.9-1.03,1.83-2.04,2.95-2.84c0.39-0.28,0.81-0.53,1.2-0.82c0.27-0.2,0.52-0.44,0.77-0.67c0.18-0.16,0.36-0.29,0.67-0.21
		C66.76,52.45,66.72,52.51,66.67,52.56z M66.72,52.04c0.29-0.18,0.58-0.37,0.87-0.55c0.02,0.03,0.03,0.06,0.05,0.08
		C67.38,51.82,67.19,52.15,66.72,52.04z M65.2,58.25c0.02-0.23,0.12-0.41,0.31-0.54C65.49,57.94,65.34,58.09,65.2,58.25z
		 M65.55,57.66c0.14-0.27,0.43-0.72,0.45-0.7C65.94,57.24,65.77,57.47,65.55,57.66z M66.19,56.55c0.08-0.11,0.16-0.23,0.24-0.34
		C66.46,56.39,66.35,56.49,66.19,56.55z M70.23,51.47c-0.29,0.32-0.62,0.61-0.89,0.95c-0.56,0.73-1.1,1.48-1.64,2.22
		c-0.32,0.44-0.64,0.87-0.96,1.31c0.47-1.13,3.09-4.52,3.67-4.74C70.35,51.29,70.3,51.39,70.23,51.47z M59.1,81.62
		c-0.03-0.01-0.06-0.01-0.09-0.02c0.04-0.18,0.07-0.36,0.11-0.54c0.03,0.01,0.07,0.02,0.1,0.03C59.18,81.26,59.14,81.44,59.1,81.62z
		 M59.27,80.66c-0.02,0-0.04-0.01-0.06-0.01c0.01-0.07,0.02-0.14,0.03-0.21c0.03,0.01,0.05,0.01,0.08,0.02
		C59.3,80.52,59.28,80.59,59.27,80.66z M59.33,80.19c-0.02,0-0.03,0-0.05-0.01c0.01-0.09,0.01-0.18,0.02-0.27
		c0.03,0,0.05,0.01,0.08,0.01C59.37,80.02,59.35,80.11,59.33,80.19z M65.87,81.69c0.02-0.1,0.04-0.2,0.06-0.3
		c0.02,0,0.05,0.01,0.07,0.01C66,81.5,65.91,81.69,65.87,81.69z M71.12,76.9c-0.03,0-0.07,0-0.1,0c0.01-0.12,0.01-0.25,0.02-0.37
		c0.03,0,0.05,0,0.08,0C71.12,76.65,71.12,76.77,71.12,76.9z M73.15,62.99c-0.13-0.31,0.17-1.66,0.42-1.86
		C73.43,61.75,73.29,62.37,73.15,62.99z M74.11,58.4c-0.14,0.74-0.29,1.47-0.44,2.21c-0.02,0.1-0.06,0.19-0.12,0.34
		c-0.06-0.09,0.32-2.14,0.53-3.13c0.01-0.04,0.05-0.07,0.08-0.11C74.15,57.94,74.15,58.17,74.11,58.4z M74.17,57.7
		c-0.02-0.39,0.14-0.73,0.28-1.08C74.37,56.98,74.47,57.39,74.17,57.7z M81.01,69.6c0.01,0.07,0.02,0.14,0.03,0.21
		c0,0.01-0.01,0.03-0.02,0.03c-0.01,0-0.02-0.01-0.05-0.02c-0.01-0.06-0.03-0.13-0.05-0.2C80.95,69.61,80.98,69.61,81.01,69.6z
		 M80.97,69.06c-0.2-0.4-0.16-0.82-0.21-1.24c0.04-0.01,0.07-0.01,0.11-0.02C80.9,68.22,80.93,68.64,80.97,69.06z M80.77,67.26
		c0.02,0.1,0.04,0.21,0.06,0.31c-0.03,0.01-0.06,0.01-0.08,0.02c-0.03-0.11-0.05-0.22-0.08-0.34C80.7,67.25,80.74,67.26,80.77,67.26
		z M85.06,69.33c0.01,0,0.02,0,0.03,0c0.01,0.08,0.02,0.15,0.03,0.23c-0.02,0-0.03,0-0.05,0C85.06,69.49,85.06,69.41,85.06,69.33z
		 M79.18,49.68c0.03-0.14-0.09-0.44-0.06-0.57c0.32,0,0.62-0.05,1.09,0.17c0.02,0.17,0.01,0.14,0.03,0.31
		C79.88,49.53,79.54,49.83,79.18,49.68z M80.84,50.72c0.25,0.02,0.25,0.02,0.31,0.35C81.06,50.96,80.96,50.85,80.84,50.72z
		 M88.63,57.84c-0.29-0.15-0.35-0.25-0.49-0.69C88.29,57.37,88.44,57.58,88.63,57.84z M87.78,56.63c0.06,0.1,0.15,0.32,0.13,0.34
		C87.84,56.88,87.75,56.66,87.78,56.63z M84.87,52.11c-0.16-0.15-0.32-0.29-0.48-0.44C84.7,51.65,84.9,52.09,84.87,52.11z"/>
	<path class="st0" d="M25.56,105.87c0.2,0.01,0.25,0.16,0.35,0.28c0.14,0.19,0.31,0.29,0.57,0.26c0.92-0.09,6.82-0.11,7.38-0.13
		c0.21-0.01,2.94-0.11,2.94-0.08c-0.44,0.02,5.63,0.05,6.54,0.06c0.21,0,2.65,0.28,2.86,0.26c0,0,0,0,0,0
		c-0.05-0.01-0.25-0.05-0.9-0.24c0.13-0.03,0.19-0.06,0.25-0.05c0.79,0.1,20.85-0.11,22.37-0.1c0.75,0,2.98,0.01,3.15,0.03
		c0.16,0.02,9.08-0.31,9.95-0.21c0.55,0.06,1.1,0.11,1.65,0.16c0.65,0.06,1.31,0.1,1.96,0.15c0.02,0,0.05-0.01,0.09-0.02
		c0.02-0.05,0.04-0.11,0.08-0.21c0.65,0,1.33-0.01,2,0c0.65,0.01,1.29,0.05,1.94,0.07c0.25,0.01,0.5,0.01,0.74-0.01
		c0.25-0.02,0.5-0.05,0.76-0.04c0.82,0.04,1.65,0.04,2.48,0.05c0.13,0,0.26-0.01,0.4-0.02c0.43-0.01,0.87-0.07,1.3-0.01
		c0.78,0.1,1.55,0.04,2.33,0c0.76-0.04,1.53-0.09,2.29-0.11c0.89-0.02,1.78,0,2.66-0.01c0.72,0,1.44-0.01,2.16-0.02
		c0.08,0,0.16,0,0.23-0.03c0.4-0.17,0.4-0.18,0.67-0.16c0.06,0,0.12-0.01,0.18-0.02c-0.01-0.03-0.02-0.05-0.02-0.05
		c-1.16-0.06-2.31-0.15-3.47-0.17c-1.44-0.03-2.87,0-4.31-0.01c-0.35,0-0.71-0.05-1.06-0.07c-0.26-0.01-0.53,0-0.79-0.01
		c-0.72-0.04-1.45-0.1-2.17-0.12c-1.45-0.04-2.9-0.06-4.35-0.1c-0.41-0.01-0.82-0.04-1.22-0.05c-1.5-0.04-3-0.09-4.51-0.1
		c-1.12,0-2.24,0.1-3.36,0.1c-1.49,0.01-2.98-0.03-4.47-0.03c-1.41,0-2.82,0.03-4.23,0.04c-0.47,0-0.94,0-1.42,0
		c0.02-0.25,0.07-0.48,0.07-0.72c0.02-1.19,0.04-2.38,0.03-3.56c0-0.39-0.04-0.8-0.13-1.18c-0.06-0.25-0.24-0.47-0.18-0.8
		c0.54-0.02,1.06-0.06,1.59-0.05c1.07,0.02,10.22-0.03,10.28-0.03c1.38,0.05,2.77-0.17,4.15,0.01c0.07,0.01,0.19,0,0.2-0.04
		c0.08-0.2,0.25-0.11,0.38-0.12c0.14-0.01,0.29,0.03,0.43,0.02c0.51-0.04,1.02-0.09,1.52-0.14c0.03,0,0.06-0.04,0.11-0.07
		c-0.09-0.18-0.19-0.26-0.38-0.22c-0.2,0.04-0.41,0.08-0.62,0.08c-2.67-0.02-5.34-0.04-8-0.06c-2.52-0.02-10.01,0.1-11,0.14
		c-0.83,0.03-1.66,0-2.49-0.02c-0.88-0.03-9.45,0.04-9.77,0.03c-0.47-0.02-6.98,0.09-8.01,0.08c-0.87,0-6.47-0.14-7.47-0.1
		c-0.72,0.03-2.75-0.1-3.47-0.28c-0.1-0.03-0.26-0.02-0.33,0.04c-0.17,0.16-0.36,0.15-0.55,0.14c-0.28-0.01-0.55,0-0.83-0.01
		c-0.43-0.01-0.87,0-1.3-0.04c-0.58-0.06-0.59-0.07-0.55,0.54c0.5,0.05,0.57,0.12,0.69,0.63c0.02,0.1,0.06,0.21,0.06,0.31
		c0.04,0.86,0.1,1.71,0.12,2.57c0.01,0.84-0.03,1.69-0.05,2.53c-0.01,0.22-0.03,0.44-0.05,0.65c-0.21,0-0.38,0-0.55,0
		c-0.71,0-1.43,0-2.14-0.02c-0.63-0.02-2.97-0.1-3.51-0.1c-0.39,0-0.78-0.03-1.18-0.05c-0.08,0-0.17-0.06-0.22-0.03
		c-0.24,0.13-0.49,0.16-0.76,0.15c-0.08,0-0.2,0.12-0.23,0.21C25.38,105.71,25.5,105.87,25.56,105.87z M68.77,98.95
		c0.06,0.17,0.14,0.33,0.18,0.5c0.03,0.15,0.03,0.31,0.03,0.46c0,0.37,0,0.73,0,1.1c-0.01,0.97,0.11,1.94-0.06,2.91
		c-0.01,0.07-0.03,0.17,0,0.22c0.18,0.32,0.08,0.67,0.11,1.05c-1.35,0.13-2.69,0.07-4.07,0.16c0-0.23-0.01-0.41,0-0.59
		c0.05-0.85,0.1-1.71,0.15-2.56c0.03-0.5,0.07-1,0.09-1.49c0.01-0.13,0.02-0.28-0.04-0.39c-0.21-0.4-0.13-0.85-0.28-1.28
		C66.21,98.9,67.5,99.01,68.77,98.95z M57.87,104.08c0.08-1.08,0.15-2.16,0.13-3.24c-0.01-0.53-0.06-1.05-0.09-1.62
		c1.1-0.04,2.18-0.15,3.26-0.1c1.08,0.05,2.14-0.14,3.27-0.1c-0.03,0.51-0.05,0.95-0.07,1.4c-0.06,0.95-0.19,1.9,0.04,2.85
		c0.01,0.04,0.01,0.08,0.01,0.12c0.02,0.63,0.04,1.26,0.06,1.92c-2.16,0.15-4.33-0.05-6.51,0.02
		C57.8,104.91,57.84,104.48,57.87,104.08z M57.5,104.89c0.18,0.18,0.2,0.3,0.11,0.46C57.4,105.22,57.49,105.09,57.5,104.89z
		 M53.51,102.12c0-0.42,0.05-0.84,0.02-1.26c-0.04-0.46,0.06-0.91,0.02-1.37c-0.01-0.09,0.03-0.18,0.05-0.31
		c0.25,0.03,0.92-0.12,1.06-0.12c0.75,0.02,1.5,0.04,2.24,0.06c0.34,1.04,0.22,2.1,0.13,3.16c-0.04,0.55-0.09,1.11-0.05,1.66
		c0.03,0.41,0.04,0.85,0.33,1.2c0.02,0.03,0.04,0.07,0.05,0.11c0.01,0.02,0,0.05-0.01,0.07c-0.58-0.02-3.16,0.05-3.54,0.05
		c-0.25,0-0.32-0.08-0.32-0.34C53.5,104.06,53.5,103.09,53.51,102.12z M47.58,99.17c1.74-0.17,3.4-0.03,5.01-0.01
		c0.27,1.94,0.23,3.85,0.35,5.77c0.2,0.12,0.2,0.12,0.18,0.47c-0.14,0.01-0.28,0.02-0.42,0.03c-1.62,0.03-3.23,0.25-4.86,0.14
		c-0.1-0.01-0.2-0.05-0.34-0.09C47.41,103.38,47.58,101.29,47.58,99.17z M47.13,105.08c0.13,0.19,0.14,0.31,0.03,0.45
		C46.99,105.4,47.07,105.28,47.13,105.08z M42.65,104.74c-0.01-0.06-0.02-0.15,0.01-0.19c0.25-0.27,0.19-0.62,0.25-0.94
		c0.03-0.14,0.03-0.29,0.03-0.43c0.01-0.19,0-0.39-0.06-0.59c-0.03,0.32-0.07,0.63-0.1,0.95c-0.03,0-0.05,0-0.08,0.01
		c-0.01-0.05-0.04-0.1-0.04-0.15c0.03-0.62,0.06-1.24,0.1-1.86c0.04-0.52,0.1-1.05,0.14-1.57c0.02-0.3,0-0.6,0-0.94
		c1.32,0.04,2.6,0.08,3.86,0.11c-0.03,0.58-0.08,1.13-0.09,1.68c-0.01,0.54,0.02,1.08,0.03,1.62c0,0.16-0.02,0.31-0.02,0.47
		c0.01,0.84,0.03,1.69,0.05,2.56c-1.13,0.13-3.98,0.11-4.34-0.05c0.13-0.07,0.23-0.12,0.34-0.17
		C42.71,105.08,42.68,104.91,42.65,104.74z M37.42,104.01c0.03-0.8,0.09-1.6,0.11-2.41c0.01-0.4,0.03-0.79,0.18-1.16
		c0.04-0.1,0.07-0.19-0.04-0.28c-0.04-0.03-0.05-0.12-0.05-0.18c0-0.35,0-0.71,0-1.1c1.5,0.02,2.95,0.06,4.46,0.24
		c0.06,0.81,0.14,1.6,0.16,2.39c0.02,0.58-0.04,1.16-0.05,1.73c-0.01,0.43,0,0.87,0.01,1.3c0,0.12,0.04,0.24,0.08,0.34
		c0.08,0.19,0.09,0.38-0.01,0.57c-0.25,0.08-3.47,0.02-4.86-0.09C37.42,104.92,37.41,104.46,37.42,104.01z M34.42,105.29
		c0.31-0.18,0.29-0.17,0.28-0.51c-0.02-0.68-0.01-1.37-0.02-2.05c-0.01-0.74-0.01-1.48-0.01-2.22c0-0.3,0.01-0.61,0.01-0.91
		c0-0.2-0.02-0.4-0.03-0.64c0.67,0,1.37,0,2.07,0c-0.02,1.16,0.13,2.29,0.14,3.43c0.01,0.54-0.05,1.08-0.06,1.62
		c-0.01,0.46,0,0.91,0,1.43c-0.84,0.02-1.66,0.05-2.57,0.07C34.33,105.39,34.36,105.32,34.42,105.29z"/>
	<path class="st0" d="M69.48,109.95c0.3,0,0.61-0.02,0.91-0.01c0.3,0.01,8.9-0.12,9.77-0.12c0.83,0,3.33-0.12,3.31-0.17
		c0.63,0,1.25,0,1.91,0c-0.15-0.16-0.44-0.1-0.45-0.37c0-0.02-0.09-0.05-0.14-0.05c-0.32,0.02-0.61-0.08-0.88-0.24
		c-0.1-0.06-1.32-0.09-1.44-0.09c-0.35-0.02-6.27,0.18-6.37,0.13c-0.39-0.17-15.17,0.27-15.24,0.27c-0.26,0.01-0.53,0.02-0.79,0.02
		c-1.89,0-5.86-0.02-5.96-0.03c-0.03-0.2-0.11-0.52-0.13-0.52c-0.02,0.16-0.04,0.33-0.07,0.52c-0.27,0.26-0.57,0.17-1.07,0.19
		c-0.82,0.03-2.09-0.1-2.91-0.08c-1,0.02-1.99-0.03-2.99,0.01c-1.59,0.06-3.19-0.01-4.79-0.02c-0.62-0.01-12.52-0.01-12.7-0.03
		c-0.58-0.08-1.16-0.07-1.73,0.04c-0.11,0.02-0.26,0.09-0.31,0.19c-0.08,0.14,0,0.28,0.17,0.34c0.02,0.01,0.03,0.04,0.05,0.06
		c-0.12,0.27-0.12,0.27,0,0.57c0.2,0,0.4,0,0.63,0c0.03,0.23,0.06,0.44,0.07,0.65c0.03,0.67,0.13,4.09,0.15,5.13
		c0.02,0.95,0.21,4.76,0.17,5.43c-0.02,0.42-0.04,0.84-0.34,1.19c-0.07,0.08-0.07,0.21-0.11,0.35c0.61-0.05,0.52-0.6,0.78-0.88
		c-0.04,0.45-0.09,0.91-0.14,1.42c0.05,0.03,0.13,0.05,0.18,0.1c0.11,0.11,0.48-0.15,0.5-0.27c0.02-0.17-0.13-2.33-0.13-2.62
		c0-0.38-0.06-0.77-0.02-1.15c0.13-1.13,0.09-2.27,0.14-3.4c0.08-1.82,0.18-3.64,0.27-5.46c0.01-0.19,0.05-0.39,0.07-0.61
		c0.13-0.01,0.25-0.03,0.36-0.02c0.51,0.02,6.93-0.05,7.76,0c0.34,0.02,1-0.02,1.37,0c0.03,0.44,0.26,1.08,0.05,1.5
		c-0.05,0.11-0.01,1.12,0.01,1.49c0.02,0.46,0.09,3.16,0.06,3.83c-0.04,1.37-0.1,2.74-0.16,4.11c-0.03,0.7,0.35,2.18,0.53,2.24
		c0.06-0.14,0.15-0.26,0.17-0.4c0.06-0.44,0.12-0.89,0.13-1.34c0.02-1.41,0.03-2.82,0.03-4.23c0-1.77-0.01-3.54-0.03-5.3
		c0-0.21-0.04-0.41-0.07-0.6c-0.13-0.04-0.23-0.07-0.33-0.1c0-0.32,0-0.62,0-0.95c0.42,0,0.82,0,1.22,0
		c-0.37-0.17-0.79-0.03-1.14-0.26c0.68,0,1.35,0,2.05,0c0.02,0.15,0.06,0.28,0.06,0.41c0.01,0.61,0.01,1.21,0.01,1.82
		c0,0.32,0.04,0.64-0.01,0.95c-0.1,0.64-0.09,1.28-0.08,1.93c0.02,0.82-0.02,1.63-0.05,2.45c-0.03,0.75-0.07,1.5-0.11,2.25
		c-0.02,0.4-0.05,0.79-0.06,1.19c-0.01,0.43,0.01,0.87,0.02,1.3c0.01,0.28,0.13,1.13,0.32,1.1c0.28-0.33,0.04-0.74,0.22-1.16
		c0.04,0.22,0.07,0.36,0.1,0.52c0.13-0.12,0.32-10.71,0.11-10.97c-0.02-0.03-0.01-0.08-0.01-0.12c-0.11-0.59,0.13-1.14,0.2-1.73
		c0.28,0,6.86-0.03,7.09-0.03c0.76,0.01,1.53,0.03,2.29,0.04c0.63,0.01,1.26,0,1.93,0c-0.02,0.53-0.04,1.04-0.06,1.58
		c-0.49-0.23-0.58-0.18-0.63,0.31c-0.04,0.43-0.14,0.86-0.09,1.29c0.01,0.13,0.02,0.26,0.02,0.39c0,0.87-0.01,1.74-0.01,2.6
		c0,0.3,0,0.6,0,0.91c-0.01,1-0.03,2-0.02,3c0,0.45,0.05,0.89,0.06,1.34c0.01,0.28,0.58,1.94,0.7,1.98c0.12-0.11,0.24-1.2,0.25-1.66
		c0.02-1.31,0.09-2.61,0.1-3.92c0.01-1.49-0.02-2.98-0.05-4.47c-0.01-0.7-0.08-1.39-0.1-2.09c-0.01-0.42,0.01-0.83,0.02-1.31
		c0.59,0,7.36-0.22,7.92-0.24c0.85-0.03,1.71-0.11,2.56-0.11c0.92,0,3.89,0.11,4.47,0.11c0,0.2,0,0.36,0,0.55
		c-0.08,0-0.15-0.01-0.21,0c-0.3,0.05-0.35,0.11-0.34,0.42c0,0.03,0.01,0.05,0,0.08c-0.02,0.4,0.16,0.84-0.18,1.2
		c-0.03,0.03-0.02,0.1-0.01,0.15c0.01,0.1,0.07,6.5,0.08,6.79c0.03,1.01,0.06,2.03,0.1,3.04c0.02,0.57,0.06,1.13,0.1,1.69
		c0.01,0.11,0.07,0.22,0.15,0.31c0.12,0.14,0.23,0.12,0.29-0.04c0.05-0.12,0.07-0.25,0.12-0.41c-0.1,0.03-0.16,0.05-0.23,0.07
		c-0.09-0.37-0.08-0.36,0.09-0.67c0.1-0.18,0.23-2.42,0.19-2.44c-0.2-0.15-0.14-1.02-0.14-1.25c0.02-1.65,0.24-7.9,0.16-9.37
		C69.25,110.02,69.32,109.95,69.48,109.95z M29.47,112.76c-0.02,0-0.03,0-0.05,0.01c-0.01-0.06-0.03-0.12-0.03-0.19
		c0.01-0.48,0.04-0.97,0.04-1.45c0-0.1-0.04-0.2-0.06-0.3c-0.03-0.11-0.07-0.21-0.14-0.38c0.19,0.02,0.31,0.04,0.45,0.06
		C29.61,111.28,29.54,112.02,29.47,112.76z M42.11,120.74c-0.01,0-0.02,0-0.03,0c0-0.1,0-0.19,0-0.29c0.01,0,0.02,0,0.03,0
		C42.11,120.55,42.11,120.65,42.11,120.74z M42.27,111.08c-0.16-0.22-0.15-0.45-0.16-0.71c0.12,0,0.2,0,0.33,0
		C42.38,110.62,42.32,110.85,42.27,111.08z"/>
	<path class="st0" d="M107.71,125.36c-0.01-0.23-0.02-0.43-0.04-0.64c-0.03-0.3-0.1-0.36-0.41-0.34c-1.22,0.08-2.45,0.16-3.67,0.24
		c-0.83,0.05-4.02,0.15-4.78,0.17c-0.26,0.01-9.43,0.02-9.81,0.03c-0.79,0.03-1.58,0.11-2.37,0.11c-1.3,0-2.61-0.05-3.91-0.08
		c-0.45-0.01-0.9,0-1.35-0.02c-1.62-0.05-11.08,0.02-11.54,0.03c-1.27,0.02-4.37,0.19-4.64,0.19c-0.76,0-1.52-0.02-2.29,0.01
		c-1.11,0.05-2.21,0.05-3.32,0.09c-0.19,0.01-0.36,0.01-0.52-0.12c-0.07-0.06-0.66-0.06-0.84-0.05c-0.76,0.05-1.53,0.16-2.29,0.15
		c-1.48-0.02-17.35-0.61-18.93-0.65c-1.27-0.03-8.68,0.01-9.73-0.02c-0.78-0.02-3.1-0.01-3.48,0.02c-0.31,0.03-0.62,0.1-0.94,0.13
		c-0.25,0.02-0.42,0.11-0.53,0.4c0.28,0.12,2.77,0.3,3.75,0.29c0.96-0.02,1.92-0.04,2.88-0.03c0.8,0.01,1.61,0.05,2.41,0.08
		c0.87,0.03,1.74,0.05,2.61,0.08c0.13,0,11.7,0.41,12.82,0.46c0.82,0.04,3.9,0.1,4.62,0.1c0.76,0,1.53,0.01,2.29,0.02
		c0.24,0,0.72-0.06,0.72-0.09c-0.28-0.02-0.55-0.03-0.83-0.05c0-0.03,0-0.06,0-0.08c0.46-0.06,0.92-0.02,1.38,0.04
		c0.02,0,3.43-0.02,7.29-0.04c0-0.02,0-0.03,0-0.05c0.07,0.01,0.15,0.02,0.22,0.03c-0.05,0.01-0.1,0.01-0.15,0.02
		c4.88-0.03,10.43-0.07,10.73-0.07c1.29,0,2.58,0.01,3.88,0.02c0.63,0.01,5.69-0.03,6.23,0c0.79,0.03,2.65,0.01,2.79,0.03
		c0.39,0.03,2.88-0.02,3.73-0.04c0.66-0.02,8.65-0.05,10.52-0.08c0.46-0.01,0.92,0,1.39,0.01c0.49,0.01,0.97,0.06,1.46,0.06
		c0.8-0.01,1.6-0.05,2.4-0.06c0.74-0.02,1.48-0.01,2.21-0.03c0.28-0.01,0.55-0.08,0.83-0.12c0-0.03-0.01-0.05-0.01-0.08
		C108.24,125.4,107.97,125.38,107.71,125.36z M49.63,125.76c-0.01,0-0.03-0.03-0.1-0.09c0.11,0.02,0.16,0.03,0.21,0.04
		C49.7,125.73,49.67,125.75,49.63,125.76z"/>
	<path class="st0" d="M69.9,31.26c0.2-0.01,0.43-0.09,0.58,0c0.22,0.12,0.4,0.05,0.6,0.02c0.16-0.02,0.31-0.04,0.47-0.04
		c0.69-0.02,1.37-0.03,2.06-0.04c1.24-0.02,2.48,0.09,3.72-0.03c0.59-0.06,1.18,0.03,1.78,0.04c0.84,0.02,1.69,0.05,2.53,0.03
		c0.47-0.01,0.97,0.02,1.38-0.4c-0.11-0.08-0.21-0.16-0.25-0.19c-0.05-0.16-0.06-0.29-0.13-0.36c-0.16-0.17-0.34-0.34-0.53-0.47
		c-0.15-0.1-0.22-0.23-0.24-0.39c-0.03-0.22-0.05-0.44-0.06-0.67c-0.02-0.28-0.1-0.42-0.25-0.44c-0.21-0.02-0.35,0.12-0.39,0.41
		c-0.02,0.19,0,0.39,0,0.63c-0.19-0.02-0.39-0.06-0.59-0.04c-0.22,0.02-0.39,0.01-0.45-0.25c-0.14,0.02-0.26,0.03-0.37,0.05
		c-0.16-0.37,0.18-0.68,0.07-1.05c-0.26-0.12-0.46-0.02-0.65,0.2c0.04,0.11,0.09,0.21,0.11,0.29c-0.21,0.21-0.4,0.4-0.59,0.58
		c-0.2-0.03-0.41-0.05-0.59-0.07c-0.03-0.1-0.04-0.2-0.09-0.27c-0.19-0.28-0.32-0.57-0.3-0.92c0.01-0.21-0.13-0.3-0.34-0.27
		c-0.11,0.01-0.22,0.04-0.36,0.06c-0.02-0.14-0.03-0.24-0.04-0.35c-0.06-0.53,0.06-1.09-0.24-1.58c-0.02-0.03-0.01-0.08-0.01-0.12
		c0.01-0.41,0.03-0.82,0.03-1.22c0-0.49,0.19-0.96,0.08-1.45c-0.02-0.08,0.04-0.18,0.06-0.25c0.59,0.22,0.65,0.85,1.07,1.2
		c-0.05-0.25-0.14-0.47-0.21-0.71c-0.14-0.45-0.21-0.77-0.26-1.23c-0.14-0.82-0.35-1.61-0.37-2.36c-0.01-0.22,0.27-0.35,0.46-0.43
		c0.22-0.09,0.86-0.68,0.83-1.58c-0.03-0.84-0.41-1.39-0.91-1.59c-0.87-0.54-1.96,0-2.22,0.3c-0.26,0.23-0.58,0.7-0.54,1.38
		c0.13,0.57,0.3,1.03,0.72,1.34c0.09,0.03,0.28,0.2,0.37,0.23c0.19,0.06,0.24,0.21,0.22,0.37c-0.04,0.3-0.1,0.6-0.16,0.89
		c-0.06,0.31-0.23,1.36-0.31,1.67c-0.56,2.6-1.76,4.36-2.31,5.2c-0.06,0.1-0.15,0.19-0.25,0.24c-0.15,0.08-0.18,0.19-0.23,0.34
		c-0.11,0.39-0.32,0.7-0.75,0.81c-0.02,0.01-0.04,0.03-0.06,0.05c-0.03,0.11-0.06,0.22-0.11,0.39c-0.08-0.1-0.15-0.15-0.15-0.19
		c0.01-0.12,0.08-0.23,0.09-0.34c0.03-0.32,0.07-0.65,0.06-0.98c-0.01-0.23-0.28-0.34-0.47-0.24c-0.27,0.14-0.48,0.7-0.4,0.99
		c0.06,0.2,0.09,0.4,0.15,0.64c-0.25,0.02-0.44,0.03-0.63,0.05c-0.23,0.03-0.27,0.11-0.22,0.41c0.25-0.11,0.37,0.04,0.48,0.22
		c-0.02,0.04-0.03,0.07-0.05,0.08c-0.1,0.08-0.18,0.17-0.1,0.3c0.07,0.12,0.2,0.13,0.32,0.08c0.19-0.08,0.41-0.14,0.57-0.26
		c0.23-0.18,0.44-0.2,0.69-0.1c0.09,0.03,0.23,0.06,0.29,0.01c0.3-0.25,0.66-0.24,1.01-0.22c0.46,0.02,0.92,0.07,1.37,0.08
		c1.25,0.01,2.5,0.01,3.76-0.01c0.24,0,0.43,0.14,0.64,0.15c0.23,0,0.46-0.12,0.69-0.12c0.44,0.01,0.88,0.07,1.32,0.11
		c0.02-0.02,0.21,0.05,0.22,0.05c0.38,0.29,0.84,0.1,0.98,0.75c-0.38,0.03-0.69,0.07-1,0.08c-0.11,0-0.26,0-0.34-0.07
		c-0.24-0.2-0.55-0.02-0.81,0c-0.09,0.01-0.18,0.03-0.27,0.03c-1.35,0-2.71,0.01-4.07,0.01c-0.66,0-1.32-0.03-1.98-0.05
		c-0.8-0.02-1.61-0.05-2.41-0.08c-0.41-0.01-0.82,0.02-1.22-0.06c-0.32-0.07-0.54,0.05-0.76,0.19c-0.16,0.11-0.16,0.19-0.11,0.39
		C69.57,31.31,69.74,31.27,69.9,31.26z M75.86,18.67c-0.32-0.24-0.58-0.76-0.57-1.13c0.03-0.67,0.41-1.1,0.97-1.22
		c0.6-0.12,1.24,0.22,1.47,0.79c0.3,0.99-0.23,1.68-0.69,1.71C76.75,18.84,76.18,18.91,75.86,18.67z M76.2,22.28
		c0.09-0.37,0.15-0.75,0.22-1.12c0.12,0.2,0.23,1.19,0.19,1.69c-0.29,0.04-0.29,0.04-0.72,0.58C76.01,23,76.12,22.64,76.2,22.28z
		 M74.61,27.82c-0.06,0.42-0.32,0.83-0.04,1.28c-0.31,0.02-0.54,0.04-0.78,0.05c-0.24,0.01-0.29-0.07-0.23-0.32
		c0.02-0.1-0.11-0.3-0.12-0.4c-0.03-0.39,0.18-0.4,0.47-0.61c0.17-0.12,0.46-0.68,0.58-0.86c0.3-0.44,0.58-1.06,0.74-1.56
		c0.21-0.66,0.32-0.97,0.55-1.67c0.11,0.27,0.26,0.56,0.25,0.79c-0.01,0.24,0,0.72,0,0.96c0,0.85-0.27,1.46-0.68,2.22
		c-0.06-0.01-0.32-0.12-0.38-0.13C74.77,27.52,74.64,27.63,74.61,27.82z M76.22,29.15c-0.33-0.02-0.67,0.07-1.02-0.06
		c0.03-0.07,0.05-0.13,0.08-0.15c0.48-0.24,0.61-0.71,0.73-1.17c0.15-0.55,0.26-1.11,0.38-1.67C76.32,27.11,76.55,28.14,76.22,29.15
		z M76.55,24.07c-0.17-0.32,0.05-0.61,0.05-0.91C76.65,23.47,76.71,23.78,76.55,24.07z M77.85,29.11c-0.81,0.04-0.53-0.38-0.51-0.65
		c0.14,0.05,0.51,0.51,0.65,0.56C77.92,29.07,77.89,29.11,77.85,29.11z"/>
	<path class="st0" d="M53.59,108c0.02,0,0.05,0.02,0.07,0.03c0.22,0.03,0.44,0.09,0.66,0.09c0.38-0.01,11.62-0.25,12.26-0.3
		c0.26-0.02,0.53,0,0.79-0.02c0.7-0.05,1.38-0.12,2.09-0.06c0.98,0.09,1.97,0.11,2.96,0.15c0.44,0.02,0.88,0,1.32-0.09
		c-0.04-0.36-0.19-0.55-0.54-0.52c-0.14,0.01-0.29-0.02-0.43-0.05c-0.1-0.02-0.22-0.05-0.27-0.12c-0.14-0.18-0.31-0.17-0.5-0.15
		c-0.64,0.07-3.8,0.31-4.73,0.3c-1.56-0.02-3.11-0.11-4.67-0.12c-1.29-0.01-2.59,0.07-3.88,0.11c-1.05,0.04-12.43,0-13.64,0.01
		c-0.44,0-2.73,0.09-3.44,0.07c-1.07-0.03-12.25-0.1-14.17-0.15c-0.07,0-0.15-0.02-0.19,0.02c-0.22,0.2-0.49,0.18-0.75,0.18
		c-0.28,0-0.47,0.09-0.62,0.33c-0.06,0.1-0.19,0.19-0.1,0.3c0.06,0.07,0.2,0.11,0.3,0.12c0.79,0.03,1.58,0.06,2.37,0.06
		c1.15,0,2.3-0.02,3.44-0.04c0.92-0.02,9-0.21,10.03-0.02c0.04,0.01,2.15-0.01,3.16,0.01c1.95,0.04,3.9,0.09,5.86,0.14
		c0.51,0.01,1.03,0.04,1.54,0.05c0.6,0.01,1.19,0,1.79-0.01c-0.15-0.04-0.3-0.09-0.46-0.11c-0.41-0.03-0.81-0.04-1.22-0.07
		c-0.06,0-0.13-0.04-0.19-0.06c0-0.03,0.01-0.06,0.01-0.08C52.81,108,53.2,108,53.59,108z M72.09,107.5c0.22,0,0.46-0.06,0.66,0.14
		c-0.23-0.01-0.45-0.03-0.68-0.04C72.08,107.57,72.09,107.53,72.09,107.5z"/>
	<path class="st0" d="M32.43,97.78c0.07,0.02,0.15,0.04,0.23,0.04c0.63,0.02,8.8-0.05,9.92-0.07c0.51-0.01,2.91-0.02,3.59-0.02
		c0.29,0,0.58-0.05,0.87-0.05c1.07,0.01,2.13,0.03,3.2,0.04c2.73,0.01,5.47,0.03,8.2,0.01c2.74-0.02,15.51-0.2,16.56-0.24
		c0.37-0.01,0.74,0,1.11,0c1.25-0.01,14,0.08,16.9-0.07c0.92-0.05,3.78-0.04,4.02-0.04c-0.03-0.31-0.19-0.42-0.4-0.44
		c-0.31-0.03-0.63-0.03-0.95-0.03c-0.54-0.01-1.08-0.01-1.61-0.01c-0.16,0-0.32-0.01-0.47,0c-0.54,0.03-3.02,0.09-3.57,0.11
		c-1.13,0.04-2.27,0.08-3.4,0.08c-9.18,0.01-31.34,0.12-31.84,0.13c-0.71,0.01-1.42,0.02-2.13,0.02c-0.54,0-12.79-0.05-14.62-0.06
		c-0.2,0-3.64-0.13-3.83-0.17c-0.61-0.13-1.18,0.08-1.75,0.2c-0.15,0.03-0.25,0.15-0.25,0.32C32.17,97.69,32.3,97.74,32.43,97.78z"
		/>
	<path class="st0" d="M80.49,83.44c0.03-0.15,0.05-0.3,0.08-0.45c-1.44-1.09-2.89-2.18-4.33-3.27c-0.25,0.17-0.27,0.24-0.12,0.45
		c0.06,0.08,0.15,0.14,0.22,0.22c0.1,0.11,0.2,0.22,0.29,0.33c-0.01,0.03-0.03,0.05-0.04,0.08c-0.2-0.18-0.4-0.28-0.64-0.1
		c-0.57,0.43-1.15,0.83-1.7,1.29c-0.37,0.31-0.68,0.68-1.02,1.03c-0.21,0.21-0.44,0.42-0.65,0.63c-0.09,0.09-0.2,0.18-0.26,0.3
		c-0.04,0.08-0.03,0.2,0.01,0.28c0.03,0.06,0.15,0.1,0.22,0.1c0.13,0,0.25-0.04,0.4-0.08c0.02,0.21,0.03,0.38,0.05,0.57
		c0.15-0.02,0.26-0.03,0.33-0.04c0.19,0.21-0.03,0.46,0.17,0.71c0.03-0.15,0.06-0.24,0.06-0.32c0-0.39,0.12-0.75,0.24-1.12
		c0.14-0.46,0.45-0.8,0.8-1.11c0.06-0.05,0.14-0.1,0.21-0.1c0.29-0.03,0.58-0.05,0.87-0.07c0.06,0,0.12,0.04,0.27,0.1
		c-0.44,0.12-0.7,0.4-1.08,0.45c-0.19,0.03-0.36,0.15-0.53,0.25c-0.06,0.04-0.1,0.15-0.1,0.23c0,0.05,0.1,0.1,0.16,0.14
		c0.04,0.02,0.1,0.01,0.16,0c0.6-0.07,1.2-0.16,1.81-0.2c0.35-0.03,0.71,0.03,1.1,0.05c-0.05,0.07-0.06,0.11-0.07,0.12
		c-0.4,0.11-2.07,0.36-2.35,0.29c-0.11,0.27-0.05,0.51-0.05,0.76c0,0.42-0.03,1.42,0.05,1.54c0.09,0.13,0.11,0.31,0.17,0.5
		c0.27-0.16,1.26-0.3,1.51-0.24c0.13,0.03,0.29,0.02,0.42-0.03c0.25-0.09,1.36-0.09,1.41,0.06c0.37-0.14,0.51-0.42,0.37-0.73
		c-0.18-0.4-0.16-1.82-0.2-1.98c-0.13,0.01-0.22,0.02-0.31,0.03c-0.12,0-0.28-0.05-0.37,0.01c-0.09,0.06-0.12,0.22-0.17,0.34
		c-0.04,0.08-0.05,0.18-0.1,0.26c-0.03,0.05-0.09,0.07-0.2,0.15c0.08-0.34-0.08-0.43-0.31-0.48c-0.06-0.01-0.1-0.08-0.18-0.15
		c0.21-0.06,0.37-0.11,0.54-0.15c0.23-0.05,0.24-0.23,0.21-0.39c0.37-0.03,0.71-0.05,1.04-0.07c0.32,0.23,0.27,0.63,0.45,0.9
		c0.4-0.01,0.48-0.1,0.35-0.43c-0.11-0.27-0.25-0.52-0.02-0.85C79.88,83.49,80.19,83.5,80.49,83.44z M75.58,85.07
		c-0.02-0.1-0.04-0.21-0.07-0.32C75.8,84.76,75.8,84.77,75.58,85.07z M76.65,84.47c0.15,0.04,0.27,0.06,0.38,0.11
		c0.03,0.02,0.07,0.13,0.04,0.16c-0.11,0.18-0.27,0.06-0.42,0.08C76.65,84.7,76.65,84.61,76.65,84.47z M76.72,85.22
		c0.08-0.01,0.17-0.01,0.29-0.02c0,0.16,0,0.31,0,0.45C76.73,85.59,76.73,85.59,76.72,85.22z M77.66,85.04
		c0.04,0.26,0.06,0.46,0.09,0.67C77.48,85.62,77.45,85.42,77.66,85.04z M77.31,86.23c-0.15,0.05-0.24,0.08-0.33,0.1
		c-0.02-0.05-0.05-0.08-0.04-0.09c0.04-0.07,0.09-0.14,0.13-0.2C77.14,86.09,77.2,86.14,77.31,86.23z M78.06,82.3
		c-0.22-0.02-0.39-0.03-0.56-0.04C77.72,81.99,77.77,82,78.06,82.3z M76.05,82.08c0.23-0.29,0.4-0.34,0.74-0.24
		c0.12,0.04,0.26,0.05,0.38,0.07c0,0.03,0,0.07-0.01,0.1C76.8,82.03,76.43,82.06,76.05,82.08z M78.21,83.01
		c-0.18,0.01-0.36,0.03-0.55,0.03c-0.18,0-0.36-0.03-0.54-0.05c0.52-0.1,1.02-0.17,1.6-0.15C78.57,83.1,78.38,83,78.21,83.01z"/>
	<path class="st0" d="M56.07,124.61c0.04-0.27,0.08-0.52,0.13-0.77c0.08,0,0.39-0.44,0.46-0.66c0.07-0.21,0.05-1.55,0.07-1.77
		c0.11-1.13,0.32-1.13,0.39-2.26c0.06-0.83,0.09-1.66,0.13-2.49c0.01-0.12,0-0.25,0-0.37c-0.03,0-0.06,0-0.1-0.01
		c-0.1,0.67-0.2,1.35-0.3,2.02c-0.01,0-0.03,0-0.04,0c-0.01-0.66-0.02-1.31-0.04-1.97c-0.03-0.76-0.07-1.53-0.11-2.29
		c-0.02-0.42-0.12-0.85-0.06-1.26c0.05-0.32-0.1-0.59-0.05-0.89c0.01-0.03-0.03-0.09-0.05-0.1c-0.21-0.09-0.17-0.28-0.17-0.44
		c0-0.11,0.01-0.21-0.01-0.32c-0.03-0.14-0.23-0.22-0.31-0.11c-0.1,0.14-0.23,0.32-0.22,0.48c0.01,0.87,0.07,1.73,0.1,2.6
		c0.02,0.58,0.06,1.16,0.01,1.73c-0.06,0.71-0.08,1.41-0.06,2.12c0.04,1.2,0.03,2.39,0.04,3.59c0.01,0.92,0.03,1.84,0.05,2.76
		C55.94,124.35,55.91,124.5,56.07,124.61z M56.51,118.93c0.02,0,0.03,0,0.05,0c0,0.35,0,0.69,0,1.04c-0.02,0-0.03,0-0.05,0
		C56.51,119.63,56.51,119.28,56.51,118.93z"/>
	<path class="st0" d="M45.67,116.82c-0.27,0.53-0.03,1.06-0.27,1.52c-0.06-0.87-0.09-1.74-0.1-2.6c-0.01-0.87,0.09-1.74-0.02-2.6
		c-0.02-0.18,0.05-0.39-0.02-0.54c-0.14-0.32-0.1-0.64-0.1-0.97c0-0.14,0-0.29,0-0.43c0-0.13,0-0.26,0-0.39c-0.03,0-0.06,0-0.08,0
		c-0.03,0.15-0.06,0.3-0.09,0.44c-0.22,0.12-0.49,0.21-0.49,0.5c0.01,0.58-0.09,1.15-0.07,1.73c0.05,1.37,0.03,2.74,0.04,4.1
		c0.01,0.88,0.04,1.75,0.01,2.63c-0.04,1.08,0.01,2.16,0.12,3.24c0.02,0.17,0.05,0.34,0.22,0.38c0.17,0.03,0.2,0.13,0.23,0.27
		c0.02,0.06,0.08,0.1,0.16,0.19c0.05-0.13,0.06-0.24,0.12-0.29c0.29-0.22,0.25-0.54,0.26-0.83c0.01-0.55-0.04-1.1-0.03-1.65
		c0.02-1.13,0.08-2.27,0.11-3.4C45.68,117.7,45.67,117.3,45.67,116.82z"/>
	<path class="st0" d="M51.8,115.49c0.05-1.46-0.06-2.91-0.09-4.37c0-0.09-0.08-0.22-0.15-0.24c-0.06-0.02-0.16,0.08-0.25,0.12
		c-0.09,0.04-0.17,0.08-0.25,0.11c0.26,1.72,0.23,3.43-0.09,5.14c-0.05-1.69-0.09-3.37-0.14-5.06c-0.09,0.18-0.15,0.37-0.15,0.56
		c0,0.71,0.01,1.42,0.02,2.13c0.02,0.79,0.04,1.58,0.07,2.37c0.04,0.86,0.12,1.71,0.16,2.57c0.03,0.84,0.03,1.69,0.03,2.53
		c0,0.44,0.06,2.54,0.06,2.79c0,0.15,0.09,0.21,0.21,0.25c0.15,0.05,0.58-1.14,0.57-1.37c-0.02-0.91-0.04-1.81-0.03-2.72
		c0-0.59,0.06-1.19,0.06-1.78C51.83,117.52,51.76,116.51,51.8,115.49z"/>
	<path class="st0" d="M64.66,115.81c-0.03-0.37-0.03-0.73-0.03-1.1c0-0.74,0.02-1.48,0.02-2.22c0-0.44-0.21-0.59-0.66-0.47
		c0.03-0.48,0.05-0.95,0.08-1.49c-0.19,0.21-0.25,0.39-0.26,0.59c-0.01,0.54-0.02,1.08-0.04,1.62c-0.01,0.3-0.02,0.6-0.02,0.91
		c-0.01,0.59-0.01,1.18-0.01,1.77c0,0.14-0.02,0.29-0.02,0.43c0.01,0.8,0.03,1.61,0.04,2.41c0.01,0.75,0.03,1.5,0.04,2.25
		c0.01,0.76,0,1.53-0.01,2.29c0,0.43,0,0.87,0,1.33c0.15,0.05,0.27,0.09,0.39,0.13c0.06,0.01,0.13,0.02,0.18,0
		c0.17-0.08,0.3-0.64,0.16-0.74c-0.15-0.1-0.14-0.21-0.13-0.33c0.03-0.46,0.06-0.92,0.11-1.38
		C64.77,119.82,64.81,117.82,64.66,115.81z"/>
	<path class="st0" d="M33.57,122.74c-0.01-0.22-0.01-0.45-0.05-0.67c-0.13-0.67,0.04-1.33,0.01-2c-0.06-1.14-0.03-2.29-0.02-3.44
		c0.01-1.38,0.03-2.77,0.04-4.15c0-0.27-0.02-0.53-0.04-0.82c-0.08,0.05-0.11,0.06-0.17,0.1c-0.03-0.22-0.06-0.41-0.08-0.61
		c-0.01-0.13-0.09-0.21-0.2-0.19c-0.09,0.01-0.18,0.09-0.23,0.16c-0.05,0.08-0.03,0.24-0.1,0.28c-0.23,0.15-0.23,0.37-0.23,0.59
		c0.02,0.63,0.06,1.26,0.06,1.89c0,1.19-0.02,2.37-0.03,3.56c0,0.6-0.03,1.21,0.11,1.8c0.06,0.25,0.11,0.51,0.13,0.77
		c0.04,0.62,0.06,1.24,0.09,1.85c0.02,0.29,0.02,0.58,0.07,0.87c0.05,0.25,0.15,0.5,0.24,0.74c0.02,0.06,0.12,0.09,0.24,0.17
		c0.01-0.2-0.03-0.4,0.03-0.44C33.68,123.09,33.58,122.91,33.57,122.74z"/>
	<path class="st0" d="M81.35,34.96c0.21-0.23,0.72-0.07,0.72-0.58c0-0.02,0.04-0.05,0.06-0.05c0.25,0,0.19-0.22,0.22-0.35
		c0.05-0.18-0.04-0.28-0.23-0.27c-0.24,0.01-0.47,0.03-0.71,0.07c-1.14,0.2-8.62,0.01-9.41,0.03c-0.31,0.01-0.77-0.1-1.28,0.04
		c-0.12,0.19-0.06,0.34,0.07,0.41c0.15,0.09,0.33,0.18,0.5,0.19c0.93,0.06,1.86-0.04,2.79,0.08c0.74,0.1,1.5,0.08,2.25,0.09
		c1.56,0.01,3.11,0,4.67,0.01c0.12,0,0.25,0,0.41,0c-0.06,0.13-0.09,0.19-0.12,0.26C81.27,34.96,81.3,35.05,81.35,34.96z"/>
	<path class="st0" d="M66.68,117.21c0.03-0.89,0.08-1.78,0.07-2.67c-0.01-0.5,0-1,0-1.5c0.01-0.42,0.03-0.84,0.04-1.26
		c0.01-0.45,0-0.9,0-1.35c-0.03,0-0.06,0-0.09-0.01c-0.03,0.16-0.05,0.32-0.09,0.52c-0.11,0-0.24,0.02-0.36,0
		c-0.24-0.06-0.35-0.02-0.38,0.22c-0.02,0.16,0.01,0.34,0.02,0.51c0.02,0.22,0.11,0.43-0.05,0.64c-0.04,0.06-0.04,0.18-0.01,0.26
		c0.19,0.56,0.16,1.14,0.16,1.72c0,0.77-0.04,1.55-0.02,2.32c0.02,1.05,0.11,2.1,0.12,3.16c0.01,1-0.05,2-0.04,2.99
		c0,0.23,0.13,0.47,0.25,0.68c0.1,0.17,0.31,0.13,0.36-0.05c0.06-0.2,0.12-0.42,0.09-0.62c-0.09-0.46-0.12-0.92-0.15-1.39
		c-0.02-0.41,0.01-0.82,0.01-1.23C66.64,119.19,66.64,118.2,66.68,117.21z"/>
	<path class="st0" d="M31.42,115.57c0.01-0.87-0.04-1.73-0.08-2.6c-0.02-0.42-0.08-0.84-0.13-1.25c-0.02-0.14-0.03-0.3-0.23-0.32
		c-0.18-0.01-0.36,0.12-0.41,0.31c-0.03,0.11-0.03,0.24-0.02,0.35c0.03,1.13,0.06,2.27,0.08,3.4c0.02,1.15,0.04,2.29,0.06,3.44
		c0.03,1.38,0.05,2.77,0.09,4.15c0.01,0.31,0.08,0.61,0.13,0.93c0.35-0.07,0.3-0.31,0.32-0.47c0.14-0.13,0.19-0.6,0.16-0.71
		c-0.05-0.19-0.1-0.39-0.1-0.58c-0.01-1.1-0.01-2.19,0.01-3.29C31.33,117.81,31.41,116.69,31.42,115.57z"/>
	<path class="st0" d="M74.57,68.98c-0.17,0.34-0.36,0.67-0.51,1.01c-0.14,0.32-0.07,0.65,0.13,0.94c0.05,0.08,0.18,0.17,0.23,0.16
		c0.09-0.03,0.19-0.14,0.22-0.23c0.05-0.17,0.06-0.36,0.07-0.55c0.01-0.3,0.07-0.6,0.19-0.87c0.29,0,0.51-0.08,0.65-0.33
		c0.06-0.11,0.18-0.19,0.27-0.29c0.12-0.15,0.25-0.23,0.47-0.18c0.26,0.05,0.53,0.03,0.85,0.05c0.03,0.06,0.09,0.17,0.16,0.31
		c-0.59,0.05-1.12,0.15-1.61,0.41c0.06,0.28,0.05,0.3,0.18,0.32c0.59,0.11,1.19,0.4,1.81,0.01c0.05,0.18,0.09,0.34,0.14,0.5
		c0.28-0.16-0.06-0.58,0.36-0.66c0.12,0.24,0.25,0.48,0.36,0.73c0.08,0.18-0.01,0.4-0.19,0.52c-0.16,0.1-0.3,0.06-0.38-0.11
		c-0.04-0.08-0.05-0.18-0.09-0.26c-0.07-0.14-0.2-0.18-0.33-0.09c-0.13,0.09-0.14,0.22-0.07,0.35c0.16,0.27,0.65,0.49,0.88,0.37
		c0.31-0.16,0.62-0.48,0.48-0.9c-0.14-0.43-0.35-0.85-0.56-1.25c-0.3-0.55-0.81-0.85-1.37-1.09c0.12-0.32-0.24-0.28-0.33-0.49
		c0.06-0.17,0.04-0.32-0.17-0.43c-0.39-0.21-0.76-0.08-0.85,0.36c-0.05,0.23-0.01,0.49-0.01,0.81
		C75.2,68.32,74.79,68.54,74.57,68.98z M77.63,69.59c-0.16-0.07-0.28-0.13-0.44-0.2c0.08-0.1,0.14-0.18,0.21-0.27
		C77.61,69.21,77.62,69.38,77.63,69.59z"/>
	<path class="st0" d="M74.01,32.7c0.82-0.01,1.63-0.04,2.45-0.03c0.69,0,1.37,0.04,2.06,0.07c0.38,0.02,0.76,0.08,1.14,0.11
		c0.33,0.03,0.66,0.05,0.99,0.05c0.17,0,0.34-0.09,0.5-0.13c0-0.1,0.01-0.12,0-0.13c-0.03-0.04-0.07-0.08-0.1-0.12
		c-0.18-0.3-0.43-0.4-0.79-0.37c-0.56,0.05-1.13,0.04-1.7,0.04c-0.46,0-0.92-0.04-1.38-0.04c-0.72,0-1.45,0.04-2.17,0.04
		c-1.19-0.01-2.37-0.05-3.56-0.08c-0.22-0.01-0.42,0.01-0.63,0.16c0.03,0.14-0.13,0.25,0.11,0.48c0.46,0.01,0.9,0.02,1.35,0.01
		C72.86,32.73,73.43,32.71,74.01,32.7z"/>
	<path class="st0" d="M63.95,83.37c0.1-0.14,0.08-0.25,0.04-0.4c-0.13-0.44-0.51-0.66-0.8-0.95c-0.18-0.18-0.41-0.21-0.66-0.16
		c-0.51,0.11-0.98,0.28-1.4,0.61c-0.28,0.22-0.58,0.41-0.86,0.63c-0.15,0.12-0.3,0.27-0.38,0.44c-0.06,0.14-0.04,0.33-0.02,0.49
		c0.01,0.11,0.07,0.21,0.13,0.31c0.04,0.06,0.12,0.15,0.16,0.14c0.09-0.03,0.18-0.09,0.23-0.17c0.05-0.07,0.02-0.2,0.07-0.25
		c0.3-0.29,0.62-0.57,0.94-0.83c0.11-0.09,0.26-0.13,0.42,0.01c-0.02,0.11-0.03,0.24-0.05,0.36c0.25,0.16,0.47,0.27,0.78,0.21
		c0.28-0.05,0.57-0.01,0.86,0c0.14,0,0.28,0.02,0.4,0.04C63.87,83.64,63.87,83.48,63.95,83.37z M61.99,82.88
		c0.26-0.05,0.45-0.08,0.64-0.11C62.54,83.15,62.42,83.18,61.99,82.88z M62.77,82.81c0.39-0.05,0.48,0.05,0.59,0.57
		C63.02,83.29,63.13,82.88,62.77,82.81z"/>
	<path class="st0" d="M63.48,84.96c-0.24-0.11-0.45-0.06-0.65-0.03c-0.49,0.06-0.98,0.2-1.48,0.05c-0.06-0.02-0.15,0.03-0.23,0.05
		c-0.02,0.12-0.04,0.23-0.06,0.32c-0.17,0.09-0.39-0.01-0.46,0.26c-0.04,0.17-0.27,0.3-0.12,0.5c0.75,0,1.49,0,2.23,0
		c-0.39,0.21-0.8,0.35-1.24,0.23c-0.07-0.02-0.16-0.01-0.24-0.01c-0.1,0-0.23-0.03-0.3,0.02c-0.08,0.06-0.1,0.19-0.16,0.29
		c-0.17,0.04-0.35,0.07-0.52,0.1c-0.06,0.21-0.04,0.34,0.2,0.35c0.26,0.01,0.53,0.01,0.79,0.04c0.55,0.07,1.06,0.04,1.51-0.37
		c0.15-0.14,0.3-0.23,0.25-0.45c0.07-0.03,0.12-0.05,0.17-0.06c0.12-0.04,0.25-0.1,0.19-0.24c-0.03-0.07-0.14-0.14-0.23-0.16
		c-0.19-0.05-0.38-0.07-0.59-0.11c0.03-0.14,0.05-0.26,0.08-0.36C62.9,85.22,63.26,85.27,63.48,84.96z"/>
	<path class="st0" d="M52.25,85.24c-0.01-0.25,0.18-0.32,0.33-0.44c0.05-0.04,0.11-0.14,0.09-0.19c-0.02-0.07-0.1-0.14-0.17-0.18
		c-0.06-0.04-0.18,0-0.22-0.05c-0.28-0.28-0.55-0.12-0.83-0.02c-0.21,0.08-0.42,0.15-0.63,0.19c-0.33,0.06-0.38,0.09-0.43,0.38
		c-0.16,0.12-0.29,0.21-0.42,0.3c0.07,0.09,0.15,0.18,0.23,0.28c-0.02,0.09-0.05,0.22-0.06,0.34c-0.05,0.34,0.02,0.45,0.31,0.63
		c0.09,0.06,0.17,0.15,0.27,0.23c0.3-0.14,0.61-0.28,0.91-0.43c0.04-0.02,0.09-0.08,0.09-0.12c0.01-0.2,0.17-0.41-0.15-0.58
		c0.23-0.09,0.38-0.15,0.52-0.21C52.14,85.34,52.25,85.29,52.25,85.24z"/>
	<path class="st0" d="M58.16,66.65c-0.16-0.14-0.35-0.12-0.52-0.03c-0.22,0.12-0.42,0.27-0.62,0.41c-0.18,0.13-0.35,0.27-0.51,0.42
		c-0.06,0.06-0.1,0.15-0.13,0.23c-0.1,0.28-0.19,0.57-0.29,0.87c-0.22-0.1-0.43-0.11-0.58,0.1c-0.01,0.21,0.13,0.33,0.29,0.31
		c0.3-0.03,0.6-0.09,0.88-0.19c0.22-0.08,0.25-0.24,0.15-0.48c-0.09-0.21-0.04-0.39,0.08-0.55c0.1-0.14,0.21-0.27,0.34-0.38
		c0.28-0.25,0.51-0.22,0.82,0.1c-0.13,0.01-0.24,0.03-0.35,0.04c0,0.03,0,0.06-0.01,0.09c0.1,0.03,0.19,0.07,0.29,0.07
		c0.3,0.01,0.38-0.1,0.3-0.4c-0.01-0.05-0.04-0.11-0.02-0.14C58.43,66.92,58.3,66.78,58.16,66.65z"/>
	<path class="st0" d="M54.73,70.12c0.03,0.18,0.13,0.29,0.32,0.28c0.25-0.02,0.49-0.04,0.7-0.22c0.08-0.07,0.2-0.12,0.3-0.16
		c0.09-0.04,0.19-0.07,0.29-0.1c-0.14-0.27-0.14-0.28-0.54-0.42c-0.16-0.05-0.33-0.05-0.5-0.04c-0.05,0-0.1,0.13-0.12,0.21
		c-0.01,0.06,0.04,0.14,0.08,0.25c-0.12-0.03-0.19-0.05-0.26-0.06C54.79,69.82,54.7,69.91,54.73,70.12z"/>
	<path class="st0" d="M57.42,69.01c0.02,0.11,0.05,0.22,0.09,0.4c0.14-0.13,0.24-0.19,0.3-0.28c0.05-0.06,0.09-0.21,0.07-0.23
		c-0.08-0.06-0.19-0.12-0.29-0.12C57.48,68.79,57.4,68.88,57.42,69.01z"/>
	<path class="st0" d="M88.02,51.18c0.4,0.27,0.79,0.54,1.19,0.8c0.01,0,0.02,0,0.02,0c-0.06-0.08-0.11-0.17-0.19-0.22
		c-0.25-0.19-0.51-0.37-0.77-0.55C88.21,51.17,88.04,51.16,88.02,51.18z"/>
	<path class="st0" d="M94.66,55.8c0.23,0.22,0.45,0.44,0.69,0.65c0.1,0.09,0.23,0.16,0.35,0.23c-0.04-0.05-0.08-0.1-0.12-0.15
		C95.3,56.24,95.05,55.93,94.66,55.8z"/>
	<path class="st0" d="M94.63,55.76c-0.12-0.27-0.33-0.43-0.6-0.52C94.23,55.41,94.43,55.59,94.63,55.76z"/>
	<path class="st0" d="M109.9,73.57c-0.01,0.24,0.13,0.39,0.25,0.57L109.9,73.57z"/>
	<path class="st0" d="M91,69.63c0.01-0.23-0.24-1.14-0.41-1.28C90.64,68.53,90.93,69.42,91,69.63z"/>
	<path class="st0" d="M42.67,83.42c0.19-0.23,0.17-0.31-0.13-0.39c-0.4-0.11-0.78-0.05-1.16,0.11c-0.29,0.13-0.3,0.16-0.15,0.45
		c-0.17,0.08-0.34,0.15-0.58,0.26c0.21,0.19,0.37,0.32,0.51,0.45c-0.19,0.05-0.41,0.04-0.51,0.15c-0.12,0.12-0.14,0.35-0.2,0.53
		c-0.02,0.02-0.05,0.05-0.07,0.07c0.1,0.06,0.19,0.17,0.3,0.18c0.36,0.04,0.71,0.24,1.06,0.12c0.18,0.2,0.35,0.38,0.5,0.55
		c0.4-0.19,0.46-0.25,0.43-0.47c-0.01-0.14-0.02-0.28-0.04-0.42c-0.05-0.37,0.05-0.76-0.2-1.09c-0.02-0.03-0.01-0.11,0.01-0.15
		C42.51,83.66,42.58,83.53,42.67,83.42z M42.02,83.49c-0.12,0.06-0.25,0.08-0.38,0.12c-0.01-0.04-0.02-0.08-0.03-0.11
		c0.22-0.16,0.46-0.24,0.76-0.2C42.36,83.6,42.13,83.43,42.02,83.49z"/>
	<path class="st0" d="M43.56,82.45c0.11-0.34,0.04-0.52-0.23-0.64c-0.17-0.07-0.34-0.15-0.51-0.2c-0.52-0.15-1.04-0.28-1.57-0.07
		c-0.19,0.08-0.35,0.19-0.42,0.39c-0.03,0.08-0.03,0.19,0,0.26c0.09,0.18,0.21,0.35,0.32,0.52c0.05,0.08,0.12,0.15,0.22,0.01
		c-0.05-0.17-0.14-0.36-0.02-0.46c0.35-0.06,0.62-0.13,0.89-0.15c0.26-0.02,0.56-0.1,0.72,0.27C43.18,82.15,43.37,82.23,43.56,82.45
		z"/>
	<path class="st0" d="M74.64,46c-0.1,0.16-0.2,0.28-0.25,0.43c-0.08,0.22-0.13,0.45-0.21,0.67c-0.13,0.33-0.27,0.65-0.41,0.98
		c-0.07,0.16-0.07,0.28,0.15,0.32c0.03-0.06,0.08-0.11,0.1-0.16c0.1-0.36,0.28-0.67,0.49-0.98c0.14-0.19,0.24-0.41,0.35-0.62
		C74.97,46.39,74.9,46.15,74.64,46z"/>
</g>
</svg>
